G04 #@! TF.GenerationSoftware,KiCad,Pcbnew,(5.1.2)-2*
G04 #@! TF.CreationDate,2021-03-05T17:18:33+01:00*
G04 #@! TF.ProjectId,Kicad uno,4b696361-6420-4756-9e6f-2e6b69636164,rev?*
G04 #@! TF.SameCoordinates,Original*
G04 #@! TF.FileFunction,Copper,L2,Bot*
G04 #@! TF.FilePolarity,Positive*
%FSLAX46Y46*%
G04 Gerber Fmt 4.6, Leading zero omitted, Abs format (unit mm)*
G04 Created by KiCad (PCBNEW (5.1.2)-2) date 2021-03-05 17:18:33*
%MOMM*%
%LPD*%
G04 APERTURE LIST*
%ADD10C,2.000000*%
%ADD11R,2.000000X2.000000*%
%ADD12C,1.600000*%
%ADD13O,1.727200X2.032000*%
%ADD14C,4.064000*%
%ADD15O,1.400000X1.400000*%
%ADD16C,1.400000*%
%ADD17C,0.250000*%
%ADD18C,0.500000*%
%ADD19C,0.450000*%
%ADD20C,0.254000*%
G04 APERTURE END LIST*
D10*
X142648000Y-97735000D03*
D11*
X135128000Y-97735000D03*
D10*
X142648000Y-100735000D03*
X135128000Y-100735000D03*
X142648000Y-103735000D03*
X135128000Y-103735000D03*
X142648000Y-106735000D03*
X135128000Y-106735000D03*
X170338000Y-85725000D03*
X167338000Y-85725000D03*
X164338000Y-85725000D03*
X161338000Y-85725000D03*
X158338000Y-85725000D03*
D12*
X155448000Y-97235000D03*
X155448000Y-102235000D03*
D13*
X138938000Y-123825000D03*
X141478000Y-123825000D03*
X144018000Y-123825000D03*
X146558000Y-123825000D03*
X149098000Y-123825000D03*
X151638000Y-123825000D03*
X154178000Y-123825000D03*
X156718000Y-123825000D03*
X161798000Y-123825000D03*
X164338000Y-123825000D03*
X166878000Y-123825000D03*
X169418000Y-123825000D03*
X171958000Y-123825000D03*
X174498000Y-123825000D03*
X129794000Y-75565000D03*
X132334000Y-75565000D03*
X134874000Y-75565000D03*
X137414000Y-75565000D03*
X139954000Y-75565000D03*
X142494000Y-75565000D03*
X145034000Y-75565000D03*
X147574000Y-75565000D03*
X150114000Y-75565000D03*
X152654000Y-75565000D03*
X156718000Y-75565000D03*
X159258000Y-75565000D03*
X161798000Y-75565000D03*
X164338000Y-75565000D03*
X166878000Y-75565000D03*
X169418000Y-75565000D03*
X171958000Y-75565000D03*
X174498000Y-75565000D03*
D14*
X124968000Y-123825000D03*
X177038000Y-118745000D03*
X126238000Y-75565000D03*
D12*
X124968000Y-103505000D03*
X129968000Y-103505000D03*
X163068000Y-112395000D03*
X163068000Y-107395000D03*
X130048000Y-112395000D03*
X125048000Y-112395000D03*
D14*
X177038000Y-90805000D03*
D15*
X133858000Y-88265000D03*
D16*
X128778000Y-88265000D03*
D15*
X124968000Y-99695000D03*
D16*
X130048000Y-99695000D03*
X130048000Y-107315000D03*
D15*
X124968000Y-107315000D03*
D16*
X124968000Y-117475000D03*
D15*
X130048000Y-117475000D03*
D16*
X124968000Y-95885000D03*
D15*
X130048000Y-95885000D03*
X159258000Y-107315000D03*
D16*
X154178000Y-107315000D03*
D10*
X171450000Y-102815000D03*
X171450000Y-105815000D03*
X171450000Y-108815000D03*
X171450000Y-111815000D03*
X134318000Y-81915000D03*
X131318000Y-81915000D03*
X128318000Y-81915000D03*
X125318000Y-81915000D03*
D17*
X133858000Y-82375000D02*
X134318000Y-81915000D01*
X149098000Y-123977400D02*
X149098000Y-123825000D01*
D18*
X134318000Y-81915000D02*
X134318000Y-85265000D01*
X133858000Y-85725000D02*
X133858000Y-88265000D01*
X134318000Y-85265000D02*
X133858000Y-85725000D01*
X158798000Y-88265000D02*
X161338000Y-85725000D01*
X133858000Y-88265000D02*
X158798000Y-88265000D01*
X149098000Y-125341000D02*
X149487000Y-125730000D01*
X149098000Y-123825000D02*
X149098000Y-125341000D01*
X149487000Y-125730000D02*
X175260000Y-125730000D01*
X155448000Y-102235000D02*
X155448000Y-104648000D01*
X155448000Y-104648000D02*
X156210000Y-105410000D01*
X156210000Y-105410000D02*
X156210000Y-113030000D01*
X149098000Y-120142000D02*
X149098000Y-123825000D01*
X156210000Y-113030000D02*
X149098000Y-120142000D01*
X153948000Y-100735000D02*
X155448000Y-102235000D01*
X142648000Y-100735000D02*
X153948000Y-100735000D01*
X161338000Y-85725000D02*
X175260000Y-99647000D01*
X175260000Y-99647000D02*
X175260000Y-102005000D01*
X175260000Y-102005000D02*
X171450000Y-105815000D01*
X175260000Y-125730000D02*
X176412990Y-124577010D01*
X176412990Y-124577010D02*
X176412990Y-122037010D01*
X176412990Y-122037010D02*
X173990000Y-119614020D01*
X173990000Y-119614020D02*
X173990000Y-116840000D01*
X173990000Y-116840000D02*
X176530000Y-114300000D01*
X172449999Y-106814999D02*
X174124999Y-106814999D01*
X171450000Y-105815000D02*
X172449999Y-106814999D01*
X176530000Y-109220000D02*
X176530000Y-114300000D01*
X174124999Y-106814999D02*
X176530000Y-109220000D01*
X151638000Y-123825000D02*
X154178000Y-123825000D01*
X163068000Y-115062000D02*
X163068000Y-112395000D01*
X161798000Y-123825000D02*
X161798000Y-116332000D01*
X161798000Y-116332000D02*
X163068000Y-115062000D01*
X159258000Y-110998000D02*
X159258000Y-107315000D01*
X163068000Y-112395000D02*
X160655000Y-112395000D01*
X160655000Y-112395000D02*
X159258000Y-110998000D01*
D17*
X171958000Y-123561390D02*
X171958000Y-123825000D01*
D18*
X171958000Y-123672600D02*
X171958000Y-123825000D01*
X171958000Y-123672600D02*
X168935400Y-120650000D01*
X168935400Y-120650000D02*
X168935400Y-114325400D01*
X168939600Y-114325400D02*
X171450000Y-111815000D01*
X168935400Y-114325400D02*
X168939600Y-114325400D01*
X173990000Y-111355000D02*
X171450000Y-108815000D01*
X173990000Y-113030000D02*
X173990000Y-111355000D01*
X174498000Y-123672600D02*
X172720000Y-121894600D01*
X174498000Y-123825000D02*
X174498000Y-123672600D01*
X172694600Y-121894600D02*
X171450000Y-120650000D01*
X172720000Y-121894600D02*
X172694600Y-121894600D01*
X171450000Y-120650000D02*
X171450000Y-115570000D01*
X171450000Y-115570000D02*
X173990000Y-113030000D01*
D17*
X145034000Y-75717400D02*
X145034000Y-75565000D01*
D19*
X142646400Y-78105000D02*
X145034000Y-75717400D01*
X125318000Y-81915000D02*
X129128000Y-78105000D01*
X129128000Y-78105000D02*
X142646400Y-78105000D01*
D17*
X146558000Y-75565000D02*
X147574000Y-75565000D01*
X146558000Y-75874348D02*
X146558000Y-75565000D01*
X147574000Y-75717400D02*
X147574000Y-75565000D01*
D19*
X143916400Y-79375000D02*
X147574000Y-75717400D01*
X130858000Y-79375000D02*
X143916400Y-79375000D01*
X128318000Y-81915000D02*
X130858000Y-79375000D01*
D18*
X166878000Y-85265000D02*
X167338000Y-85725000D01*
X166878000Y-75565000D02*
X166878000Y-85265000D01*
X164338000Y-75565000D02*
X164338000Y-85725000D01*
D17*
X169418000Y-75565000D02*
X169418000Y-75717400D01*
D18*
X169418000Y-75565000D02*
X169418000Y-80645000D01*
X170338000Y-81565000D02*
X170338000Y-85725000D01*
X169418000Y-80645000D02*
X170338000Y-81565000D01*
X134128001Y-104734999D02*
X135128000Y-103735000D01*
X133453000Y-105410000D02*
X134128001Y-104734999D01*
X126873000Y-105410000D02*
X133453000Y-105410000D01*
X124968000Y-103505000D02*
X126873000Y-105410000D01*
X124968000Y-103505000D02*
X124968000Y-99695000D01*
X124968000Y-99695000D02*
X124968000Y-95885000D01*
X154178000Y-107315000D02*
X150495000Y-107315000D01*
X146915000Y-103735000D02*
X142648000Y-103735000D01*
X150495000Y-107315000D02*
X146915000Y-103735000D01*
X130048000Y-117475000D02*
X130048000Y-112395000D01*
X130048000Y-112395000D02*
X137795000Y-112395000D01*
X137795000Y-112395000D02*
X139700000Y-110490000D01*
X139700000Y-106683000D02*
X142648000Y-103735000D01*
X139700000Y-110490000D02*
X139700000Y-106683000D01*
D17*
X125048000Y-117395000D02*
X124968000Y-117475000D01*
D18*
X124968000Y-112475000D02*
X125048000Y-112395000D01*
X124968000Y-117475000D02*
X124968000Y-112475000D01*
X130048000Y-107395000D02*
X130048000Y-107315000D01*
X125048000Y-112395000D02*
X130048000Y-107395000D01*
X137160000Y-102767000D02*
X135128000Y-100735000D01*
X137160000Y-107950000D02*
X137160000Y-102767000D01*
X135890000Y-109220000D02*
X137160000Y-107950000D01*
X133350000Y-109220000D02*
X135890000Y-109220000D01*
X130048000Y-107315000D02*
X131445000Y-107315000D01*
X131445000Y-107315000D02*
X133350000Y-109220000D01*
X128778000Y-88265000D02*
X128778000Y-91948000D01*
X130048000Y-93218000D02*
X130048000Y-95885000D01*
X128778000Y-91948000D02*
X130048000Y-93218000D01*
D20*
G36*
X124166406Y-73864887D02*
G01*
X123874536Y-74301702D01*
X123673492Y-74787065D01*
X123571000Y-75302323D01*
X123571000Y-75827677D01*
X123673492Y-76342935D01*
X123874536Y-76828298D01*
X124166406Y-77265113D01*
X124537887Y-77636594D01*
X124974702Y-77928464D01*
X125460065Y-78129508D01*
X125975323Y-78232000D01*
X126500677Y-78232000D01*
X127015935Y-78129508D01*
X127501298Y-77928464D01*
X127938113Y-77636594D01*
X128309594Y-77265113D01*
X128601464Y-76828298D01*
X128657001Y-76694219D01*
X128729203Y-76782197D01*
X128957395Y-76969469D01*
X129217737Y-77108625D01*
X129500224Y-77194316D01*
X129794000Y-77223251D01*
X130087777Y-77194316D01*
X130370264Y-77108625D01*
X130630606Y-76969469D01*
X130858797Y-76782197D01*
X131046069Y-76554006D01*
X131064000Y-76520459D01*
X131081931Y-76554006D01*
X131269203Y-76782197D01*
X131497395Y-76969469D01*
X131757737Y-77108625D01*
X132040224Y-77194316D01*
X132334000Y-77223251D01*
X132627777Y-77194316D01*
X132910264Y-77108625D01*
X133170606Y-76969469D01*
X133398797Y-76782197D01*
X133586069Y-76554006D01*
X133604000Y-76520459D01*
X133621931Y-76554006D01*
X133809203Y-76782197D01*
X134037395Y-76969469D01*
X134297737Y-77108625D01*
X134580224Y-77194316D01*
X134874000Y-77223251D01*
X135167777Y-77194316D01*
X135450264Y-77108625D01*
X135710606Y-76969469D01*
X135938797Y-76782197D01*
X136126069Y-76554006D01*
X136147424Y-76514053D01*
X136295514Y-76716729D01*
X136511965Y-76915733D01*
X136763081Y-77068686D01*
X137039211Y-77169709D01*
X137054974Y-77172358D01*
X137287000Y-77051217D01*
X137287000Y-75692000D01*
X137267000Y-75692000D01*
X137267000Y-75438000D01*
X137287000Y-75438000D01*
X137287000Y-74078783D01*
X137054974Y-73957642D01*
X137039211Y-73960291D01*
X136763081Y-74061314D01*
X136511965Y-74214267D01*
X136295514Y-74413271D01*
X136147424Y-74615947D01*
X136126069Y-74575994D01*
X135938797Y-74347803D01*
X135710605Y-74160531D01*
X135450263Y-74021375D01*
X135167776Y-73935684D01*
X134874000Y-73906749D01*
X134580223Y-73935684D01*
X134297736Y-74021375D01*
X134037394Y-74160531D01*
X133809203Y-74347803D01*
X133621931Y-74575995D01*
X133604000Y-74609541D01*
X133586069Y-74575994D01*
X133398797Y-74347803D01*
X133170605Y-74160531D01*
X132910263Y-74021375D01*
X132627776Y-73935684D01*
X132334000Y-73906749D01*
X132040223Y-73935684D01*
X131757736Y-74021375D01*
X131497394Y-74160531D01*
X131269203Y-74347803D01*
X131081931Y-74575995D01*
X131064000Y-74609541D01*
X131046069Y-74575994D01*
X130858797Y-74347803D01*
X130630605Y-74160531D01*
X130370263Y-74021375D01*
X130087776Y-73935684D01*
X129794000Y-73906749D01*
X129500223Y-73935684D01*
X129217736Y-74021375D01*
X128957394Y-74160531D01*
X128729203Y-74347803D01*
X128657001Y-74435781D01*
X128601464Y-74301702D01*
X128309594Y-73864887D01*
X128179707Y-73735000D01*
X175219909Y-73735000D01*
X176328001Y-74843093D01*
X176328000Y-85944125D01*
X176324565Y-85979000D01*
X176328000Y-86013875D01*
X176328000Y-86013876D01*
X176338273Y-86118183D01*
X176378872Y-86252019D01*
X176444800Y-86375362D01*
X176533525Y-86483474D01*
X176560617Y-86505708D01*
X178868001Y-88813093D01*
X178868001Y-88863294D01*
X178738113Y-88733406D01*
X178301298Y-88441536D01*
X177815935Y-88240492D01*
X177300677Y-88138000D01*
X176775323Y-88138000D01*
X176260065Y-88240492D01*
X175774702Y-88441536D01*
X175337887Y-88733406D01*
X174966406Y-89104887D01*
X174674536Y-89541702D01*
X174473492Y-90027065D01*
X174371000Y-90542323D01*
X174371000Y-91067677D01*
X174473492Y-91582935D01*
X174674536Y-92068298D01*
X174966406Y-92505113D01*
X175337887Y-92876594D01*
X175774702Y-93168464D01*
X176260065Y-93369508D01*
X176775323Y-93472000D01*
X177300677Y-93472000D01*
X177815935Y-93369508D01*
X178301298Y-93168464D01*
X178738113Y-92876594D01*
X178868001Y-92746706D01*
X178868000Y-116803293D01*
X178738113Y-116673406D01*
X178301298Y-116381536D01*
X177815935Y-116180492D01*
X177300677Y-116078000D01*
X176775323Y-116078000D01*
X176260065Y-116180492D01*
X175774702Y-116381536D01*
X175549703Y-116531875D01*
X177125049Y-114956530D01*
X177158817Y-114928817D01*
X177269411Y-114794059D01*
X177351589Y-114640313D01*
X177402195Y-114473490D01*
X177415000Y-114343477D01*
X177415000Y-114343467D01*
X177419281Y-114300001D01*
X177415000Y-114256535D01*
X177415000Y-109263466D01*
X177419281Y-109219999D01*
X177415000Y-109176533D01*
X177415000Y-109176523D01*
X177402195Y-109046510D01*
X177351589Y-108879687D01*
X177269411Y-108725941D01*
X177210343Y-108653967D01*
X177186532Y-108624953D01*
X177186530Y-108624951D01*
X177158817Y-108591183D01*
X177125050Y-108563471D01*
X174781533Y-106219955D01*
X174753816Y-106186182D01*
X174619058Y-106075588D01*
X174465312Y-105993410D01*
X174298489Y-105942804D01*
X174168476Y-105929999D01*
X174168468Y-105929999D01*
X174124999Y-105925718D01*
X174081530Y-105929999D01*
X173085000Y-105929999D01*
X173085000Y-105653967D01*
X173048103Y-105468475D01*
X175855049Y-102661530D01*
X175888817Y-102633817D01*
X175921897Y-102593510D01*
X175999411Y-102499059D01*
X176081589Y-102345314D01*
X176132195Y-102178490D01*
X176137078Y-102128912D01*
X176145000Y-102048477D01*
X176145000Y-102048469D01*
X176149281Y-102005000D01*
X176145000Y-101961531D01*
X176145000Y-99690465D01*
X176149281Y-99646999D01*
X176145000Y-99603533D01*
X176145000Y-99603523D01*
X176132195Y-99473510D01*
X176081589Y-99306687D01*
X175999411Y-99152941D01*
X175888817Y-99018183D01*
X175855051Y-98990472D01*
X164224578Y-87360000D01*
X164499033Y-87360000D01*
X164814912Y-87297168D01*
X165112463Y-87173918D01*
X165380252Y-86994987D01*
X165607987Y-86767252D01*
X165786918Y-86499463D01*
X165838000Y-86376140D01*
X165889082Y-86499463D01*
X166068013Y-86767252D01*
X166295748Y-86994987D01*
X166563537Y-87173918D01*
X166861088Y-87297168D01*
X167176967Y-87360000D01*
X167499033Y-87360000D01*
X167814912Y-87297168D01*
X168112463Y-87173918D01*
X168380252Y-86994987D01*
X168607987Y-86767252D01*
X168786918Y-86499463D01*
X168838000Y-86376140D01*
X168889082Y-86499463D01*
X169068013Y-86767252D01*
X169295748Y-86994987D01*
X169563537Y-87173918D01*
X169861088Y-87297168D01*
X170176967Y-87360000D01*
X170499033Y-87360000D01*
X170814912Y-87297168D01*
X171112463Y-87173918D01*
X171380252Y-86994987D01*
X171607987Y-86767252D01*
X171786918Y-86499463D01*
X171910168Y-86201912D01*
X171973000Y-85886033D01*
X171973000Y-85563967D01*
X171910168Y-85248088D01*
X171786918Y-84950537D01*
X171607987Y-84682748D01*
X171380252Y-84455013D01*
X171223000Y-84349941D01*
X171223000Y-81608465D01*
X171227281Y-81564999D01*
X171223000Y-81521533D01*
X171223000Y-81521523D01*
X171210195Y-81391510D01*
X171159589Y-81224687D01*
X171077411Y-81070941D01*
X171040297Y-81025718D01*
X170994532Y-80969953D01*
X170994530Y-80969951D01*
X170966817Y-80936183D01*
X170933050Y-80908471D01*
X170303000Y-80278422D01*
X170303000Y-76929753D01*
X170482797Y-76782197D01*
X170670069Y-76554006D01*
X170688000Y-76520459D01*
X170705931Y-76554006D01*
X170893203Y-76782197D01*
X171121395Y-76969469D01*
X171381737Y-77108625D01*
X171664224Y-77194316D01*
X171958000Y-77223251D01*
X172251777Y-77194316D01*
X172534264Y-77108625D01*
X172794606Y-76969469D01*
X173022797Y-76782197D01*
X173210069Y-76554006D01*
X173228000Y-76520459D01*
X173245931Y-76554006D01*
X173433203Y-76782197D01*
X173661395Y-76969469D01*
X173921737Y-77108625D01*
X174204224Y-77194316D01*
X174498000Y-77223251D01*
X174791777Y-77194316D01*
X175074264Y-77108625D01*
X175334606Y-76969469D01*
X175562797Y-76782197D01*
X175750069Y-76554006D01*
X175889225Y-76293663D01*
X175974916Y-76011176D01*
X175996600Y-75791018D01*
X175996600Y-75338981D01*
X175974916Y-75118823D01*
X175889225Y-74836336D01*
X175750069Y-74575994D01*
X175562797Y-74347803D01*
X175334605Y-74160531D01*
X175074263Y-74021375D01*
X174791776Y-73935684D01*
X174498000Y-73906749D01*
X174204223Y-73935684D01*
X173921736Y-74021375D01*
X173661394Y-74160531D01*
X173433203Y-74347803D01*
X173245931Y-74575995D01*
X173228000Y-74609541D01*
X173210069Y-74575994D01*
X173022797Y-74347803D01*
X172794605Y-74160531D01*
X172534263Y-74021375D01*
X172251776Y-73935684D01*
X171958000Y-73906749D01*
X171664223Y-73935684D01*
X171381736Y-74021375D01*
X171121394Y-74160531D01*
X170893203Y-74347803D01*
X170705931Y-74575995D01*
X170688000Y-74609541D01*
X170670069Y-74575994D01*
X170482797Y-74347803D01*
X170254605Y-74160531D01*
X169994263Y-74021375D01*
X169711776Y-73935684D01*
X169418000Y-73906749D01*
X169124223Y-73935684D01*
X168841736Y-74021375D01*
X168581394Y-74160531D01*
X168353203Y-74347803D01*
X168165931Y-74575995D01*
X168148000Y-74609541D01*
X168130069Y-74575994D01*
X167942797Y-74347803D01*
X167714605Y-74160531D01*
X167454263Y-74021375D01*
X167171776Y-73935684D01*
X166878000Y-73906749D01*
X166584223Y-73935684D01*
X166301736Y-74021375D01*
X166041394Y-74160531D01*
X165813203Y-74347803D01*
X165625931Y-74575995D01*
X165608000Y-74609541D01*
X165590069Y-74575994D01*
X165402797Y-74347803D01*
X165174605Y-74160531D01*
X164914263Y-74021375D01*
X164631776Y-73935684D01*
X164338000Y-73906749D01*
X164044223Y-73935684D01*
X163761736Y-74021375D01*
X163501394Y-74160531D01*
X163273203Y-74347803D01*
X163085931Y-74575995D01*
X163068000Y-74609541D01*
X163050069Y-74575994D01*
X162862797Y-74347803D01*
X162634605Y-74160531D01*
X162374263Y-74021375D01*
X162091776Y-73935684D01*
X161798000Y-73906749D01*
X161504223Y-73935684D01*
X161221736Y-74021375D01*
X160961394Y-74160531D01*
X160733203Y-74347803D01*
X160545931Y-74575995D01*
X160528000Y-74609541D01*
X160510069Y-74575994D01*
X160322797Y-74347803D01*
X160094605Y-74160531D01*
X159834263Y-74021375D01*
X159551776Y-73935684D01*
X159258000Y-73906749D01*
X158964223Y-73935684D01*
X158681736Y-74021375D01*
X158421394Y-74160531D01*
X158193203Y-74347803D01*
X158005931Y-74575995D01*
X157988000Y-74609541D01*
X157970069Y-74575994D01*
X157782797Y-74347803D01*
X157554605Y-74160531D01*
X157294263Y-74021375D01*
X157011776Y-73935684D01*
X156718000Y-73906749D01*
X156424223Y-73935684D01*
X156141736Y-74021375D01*
X155881394Y-74160531D01*
X155653203Y-74347803D01*
X155465931Y-74575995D01*
X155326775Y-74836337D01*
X155241084Y-75118824D01*
X155219400Y-75338982D01*
X155219400Y-75791019D01*
X155241084Y-76011177D01*
X155326775Y-76293664D01*
X155465931Y-76554006D01*
X155653203Y-76782197D01*
X155881395Y-76969469D01*
X156141737Y-77108625D01*
X156424224Y-77194316D01*
X156718000Y-77223251D01*
X157011777Y-77194316D01*
X157294264Y-77108625D01*
X157554606Y-76969469D01*
X157782797Y-76782197D01*
X157970069Y-76554006D01*
X157988000Y-76520459D01*
X158005931Y-76554006D01*
X158193203Y-76782197D01*
X158421395Y-76969469D01*
X158681737Y-77108625D01*
X158964224Y-77194316D01*
X159258000Y-77223251D01*
X159551777Y-77194316D01*
X159834264Y-77108625D01*
X160094606Y-76969469D01*
X160322797Y-76782197D01*
X160510069Y-76554006D01*
X160528000Y-76520459D01*
X160545931Y-76554006D01*
X160733203Y-76782197D01*
X160961395Y-76969469D01*
X161221737Y-77108625D01*
X161504224Y-77194316D01*
X161798000Y-77223251D01*
X162091777Y-77194316D01*
X162374264Y-77108625D01*
X162634606Y-76969469D01*
X162862797Y-76782197D01*
X163050069Y-76554006D01*
X163068000Y-76520459D01*
X163085931Y-76554006D01*
X163273203Y-76782197D01*
X163453000Y-76929752D01*
X163453001Y-84349940D01*
X163295748Y-84455013D01*
X163068013Y-84682748D01*
X162889082Y-84950537D01*
X162838000Y-85073860D01*
X162786918Y-84950537D01*
X162607987Y-84682748D01*
X162380252Y-84455013D01*
X162112463Y-84276082D01*
X161814912Y-84152832D01*
X161499033Y-84090000D01*
X161176967Y-84090000D01*
X160861088Y-84152832D01*
X160563537Y-84276082D01*
X160295748Y-84455013D01*
X160068013Y-84682748D01*
X159889082Y-84950537D01*
X159840654Y-85067451D01*
X159830795Y-85038912D01*
X159737814Y-84864956D01*
X159473413Y-84769192D01*
X158517605Y-85725000D01*
X158531748Y-85739143D01*
X158352143Y-85918748D01*
X158338000Y-85904605D01*
X157382192Y-86860413D01*
X157477956Y-87124814D01*
X157767571Y-87265704D01*
X158079108Y-87347384D01*
X158400595Y-87366718D01*
X158451714Y-87359708D01*
X158431422Y-87380000D01*
X134858713Y-87380000D01*
X134806555Y-87316445D01*
X134743000Y-87264287D01*
X134743000Y-86091578D01*
X134913044Y-85921534D01*
X134946817Y-85893817D01*
X135033991Y-85787595D01*
X156696282Y-85787595D01*
X156740039Y-86106675D01*
X156845205Y-86411088D01*
X156938186Y-86585044D01*
X157202587Y-86680808D01*
X158158395Y-85725000D01*
X157202587Y-84769192D01*
X156938186Y-84864956D01*
X156797296Y-85154571D01*
X156715616Y-85466108D01*
X156696282Y-85787595D01*
X135033991Y-85787595D01*
X135057411Y-85759059D01*
X135139589Y-85605313D01*
X135190195Y-85438490D01*
X135203000Y-85308477D01*
X135203000Y-85308467D01*
X135207281Y-85265001D01*
X135203000Y-85221535D01*
X135203000Y-84589587D01*
X157382192Y-84589587D01*
X158338000Y-85545395D01*
X159293808Y-84589587D01*
X159198044Y-84325186D01*
X158908429Y-84184296D01*
X158596892Y-84102616D01*
X158275405Y-84083282D01*
X157956325Y-84127039D01*
X157651912Y-84232205D01*
X157477956Y-84325186D01*
X157382192Y-84589587D01*
X135203000Y-84589587D01*
X135203000Y-83290059D01*
X135360252Y-83184987D01*
X135587987Y-82957252D01*
X135766918Y-82689463D01*
X135890168Y-82391912D01*
X135953000Y-82076033D01*
X135953000Y-81753967D01*
X135890168Y-81438088D01*
X135766918Y-81140537D01*
X135587987Y-80872748D01*
X135360252Y-80645013D01*
X135092463Y-80466082D01*
X134794912Y-80342832D01*
X134479033Y-80280000D01*
X134156967Y-80280000D01*
X133841088Y-80342832D01*
X133543537Y-80466082D01*
X133275748Y-80645013D01*
X133048013Y-80872748D01*
X132869082Y-81140537D01*
X132820654Y-81257451D01*
X132810795Y-81228912D01*
X132717814Y-81054956D01*
X132453413Y-80959192D01*
X131497605Y-81915000D01*
X132453413Y-82870808D01*
X132717814Y-82775044D01*
X132818662Y-82567739D01*
X132869082Y-82689463D01*
X133048013Y-82957252D01*
X133275748Y-83184987D01*
X133433000Y-83290060D01*
X133433001Y-84898421D01*
X133262956Y-85068466D01*
X133229183Y-85096183D01*
X133118589Y-85230942D01*
X133036411Y-85384688D01*
X133020090Y-85438490D01*
X132985806Y-85551509D01*
X132985805Y-85551511D01*
X132973000Y-85681524D01*
X132973000Y-85681531D01*
X132968719Y-85725000D01*
X132973000Y-85768469D01*
X132973001Y-87264286D01*
X132909445Y-87316445D01*
X132742618Y-87519725D01*
X132618653Y-87751646D01*
X132542317Y-88003294D01*
X132516541Y-88265000D01*
X132542317Y-88526706D01*
X132618653Y-88778354D01*
X132742618Y-89010275D01*
X132909445Y-89213555D01*
X133112725Y-89380382D01*
X133344646Y-89504347D01*
X133596294Y-89580683D01*
X133792421Y-89600000D01*
X133923579Y-89600000D01*
X134119706Y-89580683D01*
X134371354Y-89504347D01*
X134603275Y-89380382D01*
X134806555Y-89213555D01*
X134858713Y-89150000D01*
X158754531Y-89150000D01*
X158798000Y-89154281D01*
X158841469Y-89150000D01*
X158841477Y-89150000D01*
X158971490Y-89137195D01*
X159138313Y-89086589D01*
X159292059Y-89004411D01*
X159426817Y-88893817D01*
X159454534Y-88860044D01*
X160991475Y-87323104D01*
X161176967Y-87360000D01*
X161499033Y-87360000D01*
X161684525Y-87323103D01*
X174375000Y-100013579D01*
X174375001Y-101638420D01*
X173080885Y-102932536D01*
X173091718Y-102752405D01*
X173047961Y-102433325D01*
X172942795Y-102128912D01*
X172849814Y-101954956D01*
X172585413Y-101859192D01*
X171629605Y-102815000D01*
X171643748Y-102829143D01*
X171464143Y-103008748D01*
X171450000Y-102994605D01*
X170494192Y-103950413D01*
X170589956Y-104214814D01*
X170797261Y-104315662D01*
X170675537Y-104366082D01*
X170407748Y-104545013D01*
X170180013Y-104772748D01*
X170001082Y-105040537D01*
X169877832Y-105338088D01*
X169815000Y-105653967D01*
X169815000Y-105976033D01*
X169877832Y-106291912D01*
X170001082Y-106589463D01*
X170180013Y-106857252D01*
X170407748Y-107084987D01*
X170675537Y-107263918D01*
X170798860Y-107315000D01*
X170675537Y-107366082D01*
X170407748Y-107545013D01*
X170180013Y-107772748D01*
X170001082Y-108040537D01*
X169877832Y-108338088D01*
X169815000Y-108653967D01*
X169815000Y-108976033D01*
X169877832Y-109291912D01*
X170001082Y-109589463D01*
X170180013Y-109857252D01*
X170407748Y-110084987D01*
X170675537Y-110263918D01*
X170798860Y-110315000D01*
X170675537Y-110366082D01*
X170407748Y-110545013D01*
X170180013Y-110772748D01*
X170001082Y-111040537D01*
X169877832Y-111338088D01*
X169815000Y-111653967D01*
X169815000Y-111976033D01*
X169851896Y-112161525D01*
X168363779Y-113649643D01*
X168306583Y-113696583D01*
X168195989Y-113831341D01*
X168113811Y-113985087D01*
X168063205Y-114151910D01*
X168046118Y-114325400D01*
X168050401Y-114368887D01*
X168050400Y-120606531D01*
X168046119Y-120650000D01*
X168050400Y-120693469D01*
X168050400Y-120693476D01*
X168063205Y-120823489D01*
X168113811Y-120990312D01*
X168195989Y-121144058D01*
X168306583Y-121278817D01*
X168340356Y-121306534D01*
X169220066Y-122186244D01*
X169124223Y-122195684D01*
X168841736Y-122281375D01*
X168581394Y-122420531D01*
X168353203Y-122607803D01*
X168165931Y-122835995D01*
X168148000Y-122869541D01*
X168130069Y-122835994D01*
X167942797Y-122607803D01*
X167714605Y-122420531D01*
X167454263Y-122281375D01*
X167171776Y-122195684D01*
X166878000Y-122166749D01*
X166584223Y-122195684D01*
X166301736Y-122281375D01*
X166041394Y-122420531D01*
X165813203Y-122607803D01*
X165625931Y-122835995D01*
X165608000Y-122869541D01*
X165590069Y-122835994D01*
X165402797Y-122607803D01*
X165174605Y-122420531D01*
X164914263Y-122281375D01*
X164631776Y-122195684D01*
X164338000Y-122166749D01*
X164044223Y-122195684D01*
X163761736Y-122281375D01*
X163501394Y-122420531D01*
X163273203Y-122607803D01*
X163085931Y-122835995D01*
X163068000Y-122869541D01*
X163050069Y-122835994D01*
X162862797Y-122607803D01*
X162683000Y-122460248D01*
X162683000Y-116698578D01*
X163663050Y-115718529D01*
X163696817Y-115690817D01*
X163807411Y-115556059D01*
X163889589Y-115402313D01*
X163940195Y-115235490D01*
X163953000Y-115105477D01*
X163953000Y-115105467D01*
X163957281Y-115062001D01*
X163953000Y-115018535D01*
X163953000Y-113529521D01*
X163982759Y-113509637D01*
X164182637Y-113309759D01*
X164339680Y-113074727D01*
X164447853Y-112813574D01*
X164503000Y-112536335D01*
X164503000Y-112253665D01*
X164447853Y-111976426D01*
X164339680Y-111715273D01*
X164182637Y-111480241D01*
X163982759Y-111280363D01*
X163747727Y-111123320D01*
X163486574Y-111015147D01*
X163209335Y-110960000D01*
X162926665Y-110960000D01*
X162649426Y-111015147D01*
X162388273Y-111123320D01*
X162153241Y-111280363D01*
X161953363Y-111480241D01*
X161933479Y-111510000D01*
X161021579Y-111510000D01*
X160143000Y-110631422D01*
X160143000Y-108387702D01*
X162254903Y-108387702D01*
X162326486Y-108631671D01*
X162581996Y-108752571D01*
X162856184Y-108821300D01*
X163138512Y-108835217D01*
X163418130Y-108793787D01*
X163684292Y-108698603D01*
X163809514Y-108631671D01*
X163881097Y-108387702D01*
X163068000Y-107574605D01*
X162254903Y-108387702D01*
X160143000Y-108387702D01*
X160143000Y-108315713D01*
X160206555Y-108263555D01*
X160373382Y-108060275D01*
X160497347Y-107828354D01*
X160573683Y-107576706D01*
X160584634Y-107465512D01*
X161627783Y-107465512D01*
X161669213Y-107745130D01*
X161764397Y-108011292D01*
X161831329Y-108136514D01*
X162075298Y-108208097D01*
X162888395Y-107395000D01*
X163247605Y-107395000D01*
X164060702Y-108208097D01*
X164304671Y-108136514D01*
X164425571Y-107881004D01*
X164494300Y-107606816D01*
X164508217Y-107324488D01*
X164466787Y-107044870D01*
X164371603Y-106778708D01*
X164304671Y-106653486D01*
X164060702Y-106581903D01*
X163247605Y-107395000D01*
X162888395Y-107395000D01*
X162075298Y-106581903D01*
X161831329Y-106653486D01*
X161710429Y-106908996D01*
X161641700Y-107183184D01*
X161627783Y-107465512D01*
X160584634Y-107465512D01*
X160599459Y-107315000D01*
X160573683Y-107053294D01*
X160497347Y-106801646D01*
X160373382Y-106569725D01*
X160235979Y-106402298D01*
X162254903Y-106402298D01*
X163068000Y-107215395D01*
X163881097Y-106402298D01*
X163809514Y-106158329D01*
X163554004Y-106037429D01*
X163279816Y-105968700D01*
X162997488Y-105954783D01*
X162717870Y-105996213D01*
X162451708Y-106091397D01*
X162326486Y-106158329D01*
X162254903Y-106402298D01*
X160235979Y-106402298D01*
X160206555Y-106366445D01*
X160003275Y-106199618D01*
X159771354Y-106075653D01*
X159519706Y-105999317D01*
X159323579Y-105980000D01*
X159192421Y-105980000D01*
X158996294Y-105999317D01*
X158744646Y-106075653D01*
X158512725Y-106199618D01*
X158309445Y-106366445D01*
X158142618Y-106569725D01*
X158018653Y-106801646D01*
X157942317Y-107053294D01*
X157916541Y-107315000D01*
X157942317Y-107576706D01*
X158018653Y-107828354D01*
X158142618Y-108060275D01*
X158309445Y-108263555D01*
X158373001Y-108315714D01*
X158373000Y-110954531D01*
X158368719Y-110998000D01*
X158373000Y-111041469D01*
X158373000Y-111041476D01*
X158381061Y-111123320D01*
X158385805Y-111171490D01*
X158388845Y-111181510D01*
X158436411Y-111338312D01*
X158518589Y-111492058D01*
X158629183Y-111626817D01*
X158662956Y-111654534D01*
X159998470Y-112990049D01*
X160026183Y-113023817D01*
X160059951Y-113051530D01*
X160059953Y-113051532D01*
X160086692Y-113073476D01*
X160160941Y-113134411D01*
X160314687Y-113216589D01*
X160481510Y-113267195D01*
X160611523Y-113280000D01*
X160611533Y-113280000D01*
X160654999Y-113284281D01*
X160698465Y-113280000D01*
X161933479Y-113280000D01*
X161953363Y-113309759D01*
X162153241Y-113509637D01*
X162183001Y-113529522D01*
X162183000Y-114695421D01*
X161202951Y-115675471D01*
X161169184Y-115703183D01*
X161141471Y-115736951D01*
X161141468Y-115736954D01*
X161058590Y-115837941D01*
X160976412Y-115991687D01*
X160925805Y-116158510D01*
X160908719Y-116332000D01*
X160913001Y-116375479D01*
X160913000Y-122460247D01*
X160733203Y-122607803D01*
X160545931Y-122835995D01*
X160406775Y-123096337D01*
X160321084Y-123378824D01*
X160299400Y-123598982D01*
X160299400Y-124051019D01*
X160321084Y-124271177D01*
X160406775Y-124553664D01*
X160545931Y-124814006D01*
X160571367Y-124845000D01*
X157944633Y-124845000D01*
X157970069Y-124814006D01*
X158109225Y-124553663D01*
X158194916Y-124271176D01*
X158216600Y-124051018D01*
X158216600Y-123598981D01*
X158194916Y-123378823D01*
X158109225Y-123096336D01*
X157970069Y-122835994D01*
X157782797Y-122607803D01*
X157554605Y-122420531D01*
X157294263Y-122281375D01*
X157011776Y-122195684D01*
X156718000Y-122166749D01*
X156424223Y-122195684D01*
X156141736Y-122281375D01*
X155881394Y-122420531D01*
X155653203Y-122607803D01*
X155465931Y-122835995D01*
X155444576Y-122875947D01*
X155296486Y-122673271D01*
X155080035Y-122474267D01*
X154828919Y-122321314D01*
X154552789Y-122220291D01*
X154537026Y-122217642D01*
X154305000Y-122338783D01*
X154305000Y-123698000D01*
X154325000Y-123698000D01*
X154325000Y-123952000D01*
X154305000Y-123952000D01*
X154305000Y-123972000D01*
X154051000Y-123972000D01*
X154051000Y-123952000D01*
X151765000Y-123952000D01*
X151765000Y-123972000D01*
X151511000Y-123972000D01*
X151511000Y-123952000D01*
X151491000Y-123952000D01*
X151491000Y-123698000D01*
X151511000Y-123698000D01*
X151511000Y-122338783D01*
X151765000Y-122338783D01*
X151765000Y-123698000D01*
X154051000Y-123698000D01*
X154051000Y-122338783D01*
X153818974Y-122217642D01*
X153803211Y-122220291D01*
X153527081Y-122321314D01*
X153275965Y-122474267D01*
X153059514Y-122673271D01*
X152908000Y-122880633D01*
X152756486Y-122673271D01*
X152540035Y-122474267D01*
X152288919Y-122321314D01*
X152012789Y-122220291D01*
X151997026Y-122217642D01*
X151765000Y-122338783D01*
X151511000Y-122338783D01*
X151278974Y-122217642D01*
X151263211Y-122220291D01*
X150987081Y-122321314D01*
X150735965Y-122474267D01*
X150519514Y-122673271D01*
X150371424Y-122875947D01*
X150350069Y-122835994D01*
X150162797Y-122607803D01*
X149983000Y-122460248D01*
X149983000Y-120508578D01*
X156805049Y-113686530D01*
X156838817Y-113658817D01*
X156949411Y-113524059D01*
X157031589Y-113370313D01*
X157082195Y-113203490D01*
X157095000Y-113073477D01*
X157095000Y-113073469D01*
X157099281Y-113030000D01*
X157095000Y-112986531D01*
X157095000Y-105453469D01*
X157099281Y-105410000D01*
X157095000Y-105366531D01*
X157095000Y-105366523D01*
X157082195Y-105236510D01*
X157031589Y-105069687D01*
X156949411Y-104915941D01*
X156905611Y-104862571D01*
X156866532Y-104814953D01*
X156866530Y-104814951D01*
X156838817Y-104781183D01*
X156805050Y-104753471D01*
X156333000Y-104281422D01*
X156333000Y-103369521D01*
X156362759Y-103349637D01*
X156562637Y-103149759D01*
X156719680Y-102914727D01*
X156735060Y-102877595D01*
X169808282Y-102877595D01*
X169852039Y-103196675D01*
X169957205Y-103501088D01*
X170050186Y-103675044D01*
X170314587Y-103770808D01*
X171270395Y-102815000D01*
X170314587Y-101859192D01*
X170050186Y-101954956D01*
X169909296Y-102244571D01*
X169827616Y-102556108D01*
X169808282Y-102877595D01*
X156735060Y-102877595D01*
X156827853Y-102653574D01*
X156883000Y-102376335D01*
X156883000Y-102093665D01*
X156827853Y-101816426D01*
X156771173Y-101679587D01*
X170494192Y-101679587D01*
X171450000Y-102635395D01*
X172405808Y-101679587D01*
X172310044Y-101415186D01*
X172020429Y-101274296D01*
X171708892Y-101192616D01*
X171387405Y-101173282D01*
X171068325Y-101217039D01*
X170763912Y-101322205D01*
X170589956Y-101415186D01*
X170494192Y-101679587D01*
X156771173Y-101679587D01*
X156719680Y-101555273D01*
X156562637Y-101320241D01*
X156362759Y-101120363D01*
X156127727Y-100963320D01*
X155866574Y-100855147D01*
X155589335Y-100800000D01*
X155306665Y-100800000D01*
X155271561Y-100806983D01*
X154604534Y-100139956D01*
X154576817Y-100106183D01*
X154442059Y-99995589D01*
X154288313Y-99913411D01*
X154121490Y-99862805D01*
X153991477Y-99850000D01*
X153991469Y-99850000D01*
X153948000Y-99845719D01*
X153904531Y-99850000D01*
X144023059Y-99850000D01*
X143917987Y-99692748D01*
X143690252Y-99465013D01*
X143422463Y-99286082D01*
X143299140Y-99235000D01*
X143422463Y-99183918D01*
X143690252Y-99004987D01*
X143917987Y-98777252D01*
X144096918Y-98509463D01*
X144213627Y-98227702D01*
X154634903Y-98227702D01*
X154706486Y-98471671D01*
X154961996Y-98592571D01*
X155236184Y-98661300D01*
X155518512Y-98675217D01*
X155798130Y-98633787D01*
X156064292Y-98538603D01*
X156189514Y-98471671D01*
X156261097Y-98227702D01*
X155448000Y-97414605D01*
X154634903Y-98227702D01*
X144213627Y-98227702D01*
X144220168Y-98211912D01*
X144283000Y-97896033D01*
X144283000Y-97573967D01*
X144229602Y-97305512D01*
X154007783Y-97305512D01*
X154049213Y-97585130D01*
X154144397Y-97851292D01*
X154211329Y-97976514D01*
X154455298Y-98048097D01*
X155268395Y-97235000D01*
X155627605Y-97235000D01*
X156440702Y-98048097D01*
X156684671Y-97976514D01*
X156805571Y-97721004D01*
X156874300Y-97446816D01*
X156888217Y-97164488D01*
X156846787Y-96884870D01*
X156751603Y-96618708D01*
X156684671Y-96493486D01*
X156440702Y-96421903D01*
X155627605Y-97235000D01*
X155268395Y-97235000D01*
X154455298Y-96421903D01*
X154211329Y-96493486D01*
X154090429Y-96748996D01*
X154021700Y-97023184D01*
X154007783Y-97305512D01*
X144229602Y-97305512D01*
X144220168Y-97258088D01*
X144096918Y-96960537D01*
X143917987Y-96692748D01*
X143690252Y-96465013D01*
X143422463Y-96286082D01*
X143316760Y-96242298D01*
X154634903Y-96242298D01*
X155448000Y-97055395D01*
X156261097Y-96242298D01*
X156189514Y-95998329D01*
X155934004Y-95877429D01*
X155659816Y-95808700D01*
X155377488Y-95794783D01*
X155097870Y-95836213D01*
X154831708Y-95931397D01*
X154706486Y-95998329D01*
X154634903Y-96242298D01*
X143316760Y-96242298D01*
X143124912Y-96162832D01*
X142809033Y-96100000D01*
X142486967Y-96100000D01*
X142171088Y-96162832D01*
X141873537Y-96286082D01*
X141605748Y-96465013D01*
X141378013Y-96692748D01*
X141199082Y-96960537D01*
X141075832Y-97258088D01*
X141013000Y-97573967D01*
X141013000Y-97896033D01*
X141075832Y-98211912D01*
X141199082Y-98509463D01*
X141378013Y-98777252D01*
X141605748Y-99004987D01*
X141873537Y-99183918D01*
X141996860Y-99235000D01*
X141873537Y-99286082D01*
X141605748Y-99465013D01*
X141378013Y-99692748D01*
X141199082Y-99960537D01*
X141075832Y-100258088D01*
X141013000Y-100573967D01*
X141013000Y-100896033D01*
X141075832Y-101211912D01*
X141199082Y-101509463D01*
X141378013Y-101777252D01*
X141605748Y-102004987D01*
X141873537Y-102183918D01*
X141996860Y-102235000D01*
X141873537Y-102286082D01*
X141605748Y-102465013D01*
X141378013Y-102692748D01*
X141199082Y-102960537D01*
X141075832Y-103258088D01*
X141013000Y-103573967D01*
X141013000Y-103896033D01*
X141049896Y-104081525D01*
X139104951Y-106026471D01*
X139071184Y-106054183D01*
X139043471Y-106087951D01*
X139043468Y-106087954D01*
X138960590Y-106188941D01*
X138878412Y-106342687D01*
X138827805Y-106509510D01*
X138810719Y-106683000D01*
X138815001Y-106726479D01*
X138815000Y-110123421D01*
X137428422Y-111510000D01*
X131182521Y-111510000D01*
X131162637Y-111480241D01*
X130962759Y-111280363D01*
X130727727Y-111123320D01*
X130466574Y-111015147D01*
X130189335Y-110960000D01*
X129906665Y-110960000D01*
X129629426Y-111015147D01*
X129368273Y-111123320D01*
X129133241Y-111280363D01*
X128933363Y-111480241D01*
X128776320Y-111715273D01*
X128668147Y-111976426D01*
X128613000Y-112253665D01*
X128613000Y-112536335D01*
X128668147Y-112813574D01*
X128776320Y-113074727D01*
X128933363Y-113309759D01*
X129133241Y-113509637D01*
X129163001Y-113529522D01*
X129163000Y-116474287D01*
X129099445Y-116526445D01*
X128932618Y-116729725D01*
X128808653Y-116961646D01*
X128732317Y-117213294D01*
X128706541Y-117475000D01*
X128732317Y-117736706D01*
X128808653Y-117988354D01*
X128932618Y-118220275D01*
X129099445Y-118423555D01*
X129302725Y-118590382D01*
X129534646Y-118714347D01*
X129786294Y-118790683D01*
X129982421Y-118810000D01*
X130113579Y-118810000D01*
X130309706Y-118790683D01*
X130561354Y-118714347D01*
X130793275Y-118590382D01*
X130996555Y-118423555D01*
X131163382Y-118220275D01*
X131287347Y-117988354D01*
X131363683Y-117736706D01*
X131389459Y-117475000D01*
X131363683Y-117213294D01*
X131287347Y-116961646D01*
X131163382Y-116729725D01*
X130996555Y-116526445D01*
X130933000Y-116474287D01*
X130933000Y-113529521D01*
X130962759Y-113509637D01*
X131162637Y-113309759D01*
X131182521Y-113280000D01*
X137751531Y-113280000D01*
X137795000Y-113284281D01*
X137838469Y-113280000D01*
X137838477Y-113280000D01*
X137968490Y-113267195D01*
X138135313Y-113216589D01*
X138289059Y-113134411D01*
X138423817Y-113023817D01*
X138451534Y-112990044D01*
X140295050Y-111146529D01*
X140328817Y-111118817D01*
X140393061Y-111040537D01*
X140439411Y-110984059D01*
X140505218Y-110860941D01*
X140521589Y-110830313D01*
X140572195Y-110663490D01*
X140585000Y-110533477D01*
X140585000Y-110533469D01*
X140589281Y-110490000D01*
X140585000Y-110446531D01*
X140585000Y-107049578D01*
X141013000Y-106621578D01*
X141013000Y-106896033D01*
X141075832Y-107211912D01*
X141199082Y-107509463D01*
X141378013Y-107777252D01*
X141605748Y-108004987D01*
X141873537Y-108183918D01*
X142171088Y-108307168D01*
X142486967Y-108370000D01*
X142809033Y-108370000D01*
X143124912Y-108307168D01*
X143422463Y-108183918D01*
X143690252Y-108004987D01*
X143917987Y-107777252D01*
X144096918Y-107509463D01*
X144220168Y-107211912D01*
X144283000Y-106896033D01*
X144283000Y-106573967D01*
X144220168Y-106258088D01*
X144096918Y-105960537D01*
X143917987Y-105692748D01*
X143690252Y-105465013D01*
X143422463Y-105286082D01*
X143299140Y-105235000D01*
X143422463Y-105183918D01*
X143690252Y-105004987D01*
X143917987Y-104777252D01*
X144023059Y-104620000D01*
X146548422Y-104620000D01*
X149838470Y-107910049D01*
X149866183Y-107943817D01*
X149899951Y-107971530D01*
X149899953Y-107971532D01*
X150000941Y-108054411D01*
X150154686Y-108136589D01*
X150226811Y-108158468D01*
X150321510Y-108187195D01*
X150451523Y-108200000D01*
X150451531Y-108200000D01*
X150495000Y-108204281D01*
X150538469Y-108200000D01*
X153175025Y-108200000D01*
X153326987Y-108351962D01*
X153545641Y-108498061D01*
X153788595Y-108598696D01*
X154046514Y-108650000D01*
X154309486Y-108650000D01*
X154567405Y-108598696D01*
X154810359Y-108498061D01*
X155029013Y-108351962D01*
X155214962Y-108166013D01*
X155325000Y-108001328D01*
X155325001Y-112663420D01*
X148502956Y-119485466D01*
X148469183Y-119513183D01*
X148358589Y-119647942D01*
X148276411Y-119801688D01*
X148225805Y-119968511D01*
X148213000Y-120098524D01*
X148213000Y-120098531D01*
X148208719Y-120142000D01*
X148213000Y-120185469D01*
X148213001Y-122460247D01*
X148033203Y-122607803D01*
X147845931Y-122835995D01*
X147828000Y-122869541D01*
X147810069Y-122835994D01*
X147622797Y-122607803D01*
X147394605Y-122420531D01*
X147134263Y-122281375D01*
X146851776Y-122195684D01*
X146558000Y-122166749D01*
X146264223Y-122195684D01*
X145981736Y-122281375D01*
X145721394Y-122420531D01*
X145493203Y-122607803D01*
X145305931Y-122835995D01*
X145288000Y-122869541D01*
X145270069Y-122835994D01*
X145082797Y-122607803D01*
X144854605Y-122420531D01*
X144594263Y-122281375D01*
X144311776Y-122195684D01*
X144018000Y-122166749D01*
X143724223Y-122195684D01*
X143441736Y-122281375D01*
X143181394Y-122420531D01*
X142953203Y-122607803D01*
X142765931Y-122835995D01*
X142748000Y-122869541D01*
X142730069Y-122835994D01*
X142542797Y-122607803D01*
X142314605Y-122420531D01*
X142054263Y-122281375D01*
X141771776Y-122195684D01*
X141478000Y-122166749D01*
X141184223Y-122195684D01*
X140901736Y-122281375D01*
X140641394Y-122420531D01*
X140413203Y-122607803D01*
X140225931Y-122835995D01*
X140208000Y-122869541D01*
X140190069Y-122835994D01*
X140002797Y-122607803D01*
X139774605Y-122420531D01*
X139514263Y-122281375D01*
X139231776Y-122195684D01*
X138938000Y-122166749D01*
X138644223Y-122195684D01*
X138361736Y-122281375D01*
X138101394Y-122420531D01*
X137873203Y-122607803D01*
X137685931Y-122835995D01*
X137546775Y-123096337D01*
X137461084Y-123378824D01*
X137439400Y-123598982D01*
X137439400Y-124051019D01*
X137461084Y-124271177D01*
X137546775Y-124553664D01*
X137685931Y-124814006D01*
X137873203Y-125042197D01*
X138101395Y-125229469D01*
X138361737Y-125368625D01*
X138644224Y-125454316D01*
X138938000Y-125483251D01*
X139231777Y-125454316D01*
X139514264Y-125368625D01*
X139774606Y-125229469D01*
X140002797Y-125042197D01*
X140190069Y-124814006D01*
X140208000Y-124780459D01*
X140225931Y-124814006D01*
X140413203Y-125042197D01*
X140641395Y-125229469D01*
X140901737Y-125368625D01*
X141184224Y-125454316D01*
X141478000Y-125483251D01*
X141771777Y-125454316D01*
X142054264Y-125368625D01*
X142314606Y-125229469D01*
X142542797Y-125042197D01*
X142730069Y-124814006D01*
X142748000Y-124780459D01*
X142765931Y-124814006D01*
X142953203Y-125042197D01*
X143181395Y-125229469D01*
X143441737Y-125368625D01*
X143724224Y-125454316D01*
X144018000Y-125483251D01*
X144311777Y-125454316D01*
X144594264Y-125368625D01*
X144854606Y-125229469D01*
X145082797Y-125042197D01*
X145270069Y-124814006D01*
X145288000Y-124780459D01*
X145305931Y-124814006D01*
X145493203Y-125042197D01*
X145721395Y-125229469D01*
X145981737Y-125368625D01*
X146264224Y-125454316D01*
X146558000Y-125483251D01*
X146851777Y-125454316D01*
X147134264Y-125368625D01*
X147394606Y-125229469D01*
X147622797Y-125042197D01*
X147810069Y-124814006D01*
X147828000Y-124780459D01*
X147845931Y-124814006D01*
X148033203Y-125042197D01*
X148213001Y-125189753D01*
X148213001Y-125297521D01*
X148208719Y-125341000D01*
X148225805Y-125514490D01*
X148268430Y-125655000D01*
X126909707Y-125655000D01*
X127039594Y-125525113D01*
X127331464Y-125088298D01*
X127532508Y-124602935D01*
X127635000Y-124087677D01*
X127635000Y-123562323D01*
X127532508Y-123047065D01*
X127331464Y-122561702D01*
X127039594Y-122124887D01*
X126668113Y-121753406D01*
X126231298Y-121461536D01*
X125745935Y-121260492D01*
X125230677Y-121158000D01*
X124705323Y-121158000D01*
X124190065Y-121260492D01*
X123704702Y-121461536D01*
X123267887Y-121753406D01*
X122896406Y-122124887D01*
X122604536Y-122561702D01*
X122403492Y-123047065D01*
X122301000Y-123562323D01*
X122301000Y-124087677D01*
X122403492Y-124602935D01*
X122604536Y-125088298D01*
X122896406Y-125525113D01*
X123026293Y-125655000D01*
X111708000Y-125655000D01*
X111708000Y-107648329D01*
X123675284Y-107648329D01*
X123707953Y-107756044D01*
X123818208Y-107993392D01*
X123972649Y-108204670D01*
X124165340Y-108381759D01*
X124388877Y-108517853D01*
X124634670Y-108607722D01*
X124841000Y-108485201D01*
X124841000Y-107442000D01*
X125095000Y-107442000D01*
X125095000Y-108485201D01*
X125301330Y-108607722D01*
X125547123Y-108517853D01*
X125770660Y-108381759D01*
X125963351Y-108204670D01*
X126117792Y-107993392D01*
X126228047Y-107756044D01*
X126260716Y-107648329D01*
X126137374Y-107442000D01*
X125095000Y-107442000D01*
X124841000Y-107442000D01*
X123798626Y-107442000D01*
X123675284Y-107648329D01*
X111708000Y-107648329D01*
X111708000Y-106981671D01*
X123675284Y-106981671D01*
X123798626Y-107188000D01*
X124841000Y-107188000D01*
X124841000Y-106144799D01*
X125095000Y-106144799D01*
X125095000Y-107188000D01*
X126137374Y-107188000D01*
X126260716Y-106981671D01*
X126228047Y-106873956D01*
X126117792Y-106636608D01*
X125963351Y-106425330D01*
X125770660Y-106248241D01*
X125547123Y-106112147D01*
X125301330Y-106022278D01*
X125095000Y-106144799D01*
X124841000Y-106144799D01*
X124634670Y-106022278D01*
X124388877Y-106112147D01*
X124165340Y-106248241D01*
X123972649Y-106425330D01*
X123818208Y-106636608D01*
X123707953Y-106873956D01*
X123675284Y-106981671D01*
X111708000Y-106981671D01*
X111708000Y-103363665D01*
X123533000Y-103363665D01*
X123533000Y-103646335D01*
X123588147Y-103923574D01*
X123696320Y-104184727D01*
X123853363Y-104419759D01*
X124053241Y-104619637D01*
X124288273Y-104776680D01*
X124549426Y-104884853D01*
X124826665Y-104940000D01*
X125109335Y-104940000D01*
X125144439Y-104933017D01*
X126216470Y-106005049D01*
X126244183Y-106038817D01*
X126277951Y-106066530D01*
X126277953Y-106066532D01*
X126288988Y-106075588D01*
X126378941Y-106149411D01*
X126532687Y-106231589D01*
X126699510Y-106282195D01*
X126829523Y-106295000D01*
X126829531Y-106295000D01*
X126873000Y-106299281D01*
X126916469Y-106295000D01*
X129180025Y-106295000D01*
X129011038Y-106463987D01*
X128864939Y-106682641D01*
X128764304Y-106925595D01*
X128713000Y-107183514D01*
X128713000Y-107446486D01*
X128718298Y-107473123D01*
X125224439Y-110966983D01*
X125189335Y-110960000D01*
X124906665Y-110960000D01*
X124629426Y-111015147D01*
X124368273Y-111123320D01*
X124133241Y-111280363D01*
X123933363Y-111480241D01*
X123776320Y-111715273D01*
X123668147Y-111976426D01*
X123613000Y-112253665D01*
X123613000Y-112536335D01*
X123668147Y-112813574D01*
X123776320Y-113074727D01*
X123933363Y-113309759D01*
X124083001Y-113459397D01*
X124083000Y-116472025D01*
X123931038Y-116623987D01*
X123784939Y-116842641D01*
X123684304Y-117085595D01*
X123633000Y-117343514D01*
X123633000Y-117606486D01*
X123684304Y-117864405D01*
X123784939Y-118107359D01*
X123931038Y-118326013D01*
X124116987Y-118511962D01*
X124335641Y-118658061D01*
X124578595Y-118758696D01*
X124836514Y-118810000D01*
X125099486Y-118810000D01*
X125357405Y-118758696D01*
X125600359Y-118658061D01*
X125819013Y-118511962D01*
X126004962Y-118326013D01*
X126151061Y-118107359D01*
X126251696Y-117864405D01*
X126303000Y-117606486D01*
X126303000Y-117343514D01*
X126251696Y-117085595D01*
X126151061Y-116842641D01*
X126004962Y-116623987D01*
X125853000Y-116472025D01*
X125853000Y-113582975D01*
X125962759Y-113509637D01*
X126162637Y-113309759D01*
X126319680Y-113074727D01*
X126427853Y-112813574D01*
X126483000Y-112536335D01*
X126483000Y-112253665D01*
X126476017Y-112218561D01*
X130044579Y-108650000D01*
X130179486Y-108650000D01*
X130437405Y-108598696D01*
X130680359Y-108498061D01*
X130899013Y-108351962D01*
X131050975Y-108200000D01*
X131078422Y-108200000D01*
X132693470Y-109815049D01*
X132721183Y-109848817D01*
X132754951Y-109876530D01*
X132754953Y-109876532D01*
X132855940Y-109959410D01*
X132855941Y-109959411D01*
X133009687Y-110041589D01*
X133176510Y-110092195D01*
X133306523Y-110105000D01*
X133306531Y-110105000D01*
X133350000Y-110109281D01*
X133393469Y-110105000D01*
X135846531Y-110105000D01*
X135890000Y-110109281D01*
X135933469Y-110105000D01*
X135933477Y-110105000D01*
X136063490Y-110092195D01*
X136230313Y-110041589D01*
X136384059Y-109959411D01*
X136518817Y-109848817D01*
X136546534Y-109815044D01*
X137755050Y-108606529D01*
X137788817Y-108578817D01*
X137838850Y-108517853D01*
X137899410Y-108444060D01*
X137899411Y-108444059D01*
X137981589Y-108290313D01*
X138032195Y-108123490D01*
X138045000Y-107993477D01*
X138045000Y-107993467D01*
X138049281Y-107950001D01*
X138045000Y-107906535D01*
X138045000Y-102810469D01*
X138049281Y-102767000D01*
X138045000Y-102723531D01*
X138045000Y-102723523D01*
X138032195Y-102593510D01*
X138031204Y-102590241D01*
X137993215Y-102465013D01*
X137981589Y-102426687D01*
X137899411Y-102272941D01*
X137840696Y-102201397D01*
X137816532Y-102171953D01*
X137816530Y-102171951D01*
X137788817Y-102138183D01*
X137755049Y-102110470D01*
X136726103Y-101081525D01*
X136763000Y-100896033D01*
X136763000Y-100573967D01*
X136700168Y-100258088D01*
X136576918Y-99960537D01*
X136397987Y-99692748D01*
X136170252Y-99465013D01*
X136032653Y-99373072D01*
X136128000Y-99373072D01*
X136252482Y-99360812D01*
X136372180Y-99324502D01*
X136482494Y-99265537D01*
X136579185Y-99186185D01*
X136658537Y-99089494D01*
X136717502Y-98979180D01*
X136753812Y-98859482D01*
X136766072Y-98735000D01*
X136766072Y-96735000D01*
X136753812Y-96610518D01*
X136717502Y-96490820D01*
X136658537Y-96380506D01*
X136579185Y-96283815D01*
X136482494Y-96204463D01*
X136372180Y-96145498D01*
X136252482Y-96109188D01*
X136128000Y-96096928D01*
X134128000Y-96096928D01*
X134003518Y-96109188D01*
X133883820Y-96145498D01*
X133773506Y-96204463D01*
X133676815Y-96283815D01*
X133597463Y-96380506D01*
X133538498Y-96490820D01*
X133502188Y-96610518D01*
X133489928Y-96735000D01*
X133489928Y-98735000D01*
X133502188Y-98859482D01*
X133538498Y-98979180D01*
X133597463Y-99089494D01*
X133676815Y-99186185D01*
X133773506Y-99265537D01*
X133883820Y-99324502D01*
X134003518Y-99360812D01*
X134128000Y-99373072D01*
X134223347Y-99373072D01*
X134085748Y-99465013D01*
X133858013Y-99692748D01*
X133679082Y-99960537D01*
X133555832Y-100258088D01*
X133493000Y-100573967D01*
X133493000Y-100896033D01*
X133555832Y-101211912D01*
X133679082Y-101509463D01*
X133858013Y-101777252D01*
X134085748Y-102004987D01*
X134353537Y-102183918D01*
X134476860Y-102235000D01*
X134353537Y-102286082D01*
X134085748Y-102465013D01*
X133858013Y-102692748D01*
X133679082Y-102960537D01*
X133555832Y-103258088D01*
X133493000Y-103573967D01*
X133493000Y-103896033D01*
X133529896Y-104081525D01*
X133086422Y-104525000D01*
X130773087Y-104525000D01*
X130781097Y-104497702D01*
X129968000Y-103684605D01*
X129154903Y-104497702D01*
X129162913Y-104525000D01*
X127239579Y-104525000D01*
X126396017Y-103681439D01*
X126403000Y-103646335D01*
X126403000Y-103575512D01*
X128527783Y-103575512D01*
X128569213Y-103855130D01*
X128664397Y-104121292D01*
X128731329Y-104246514D01*
X128975298Y-104318097D01*
X129788395Y-103505000D01*
X130147605Y-103505000D01*
X130960702Y-104318097D01*
X131204671Y-104246514D01*
X131325571Y-103991004D01*
X131394300Y-103716816D01*
X131408217Y-103434488D01*
X131366787Y-103154870D01*
X131271603Y-102888708D01*
X131204671Y-102763486D01*
X130960702Y-102691903D01*
X130147605Y-103505000D01*
X129788395Y-103505000D01*
X128975298Y-102691903D01*
X128731329Y-102763486D01*
X128610429Y-103018996D01*
X128541700Y-103293184D01*
X128527783Y-103575512D01*
X126403000Y-103575512D01*
X126403000Y-103363665D01*
X126347853Y-103086426D01*
X126239680Y-102825273D01*
X126082637Y-102590241D01*
X126004694Y-102512298D01*
X129154903Y-102512298D01*
X129968000Y-103325395D01*
X130781097Y-102512298D01*
X130709514Y-102268329D01*
X130454004Y-102147429D01*
X130179816Y-102078700D01*
X129897488Y-102064783D01*
X129617870Y-102106213D01*
X129351708Y-102201397D01*
X129226486Y-102268329D01*
X129154903Y-102512298D01*
X126004694Y-102512298D01*
X125882759Y-102390363D01*
X125853000Y-102370479D01*
X125853000Y-100695713D01*
X125916555Y-100643555D01*
X125938947Y-100616269D01*
X129306336Y-100616269D01*
X129365797Y-100850037D01*
X129604242Y-100960934D01*
X129859740Y-101023183D01*
X130122473Y-101034390D01*
X130382344Y-100994125D01*
X130629366Y-100903935D01*
X130730203Y-100850037D01*
X130789664Y-100616269D01*
X130048000Y-99874605D01*
X129306336Y-100616269D01*
X125938947Y-100616269D01*
X126083382Y-100440275D01*
X126207347Y-100208354D01*
X126283683Y-99956706D01*
X126302123Y-99769473D01*
X128708610Y-99769473D01*
X128748875Y-100029344D01*
X128839065Y-100276366D01*
X128892963Y-100377203D01*
X129126731Y-100436664D01*
X129868395Y-99695000D01*
X130227605Y-99695000D01*
X130969269Y-100436664D01*
X131203037Y-100377203D01*
X131313934Y-100138758D01*
X131376183Y-99883260D01*
X131387390Y-99620527D01*
X131347125Y-99360656D01*
X131256935Y-99113634D01*
X131203037Y-99012797D01*
X130969269Y-98953336D01*
X130227605Y-99695000D01*
X129868395Y-99695000D01*
X129126731Y-98953336D01*
X128892963Y-99012797D01*
X128782066Y-99251242D01*
X128719817Y-99506740D01*
X128708610Y-99769473D01*
X126302123Y-99769473D01*
X126309459Y-99695000D01*
X126283683Y-99433294D01*
X126207347Y-99181646D01*
X126083382Y-98949725D01*
X125938948Y-98773731D01*
X129306336Y-98773731D01*
X130048000Y-99515395D01*
X130789664Y-98773731D01*
X130730203Y-98539963D01*
X130491758Y-98429066D01*
X130236260Y-98366817D01*
X129973527Y-98355610D01*
X129713656Y-98395875D01*
X129466634Y-98486065D01*
X129365797Y-98539963D01*
X129306336Y-98773731D01*
X125938948Y-98773731D01*
X125916555Y-98746445D01*
X125853000Y-98694287D01*
X125853000Y-96887975D01*
X126004962Y-96736013D01*
X126151061Y-96517359D01*
X126251696Y-96274405D01*
X126303000Y-96016486D01*
X126303000Y-95753514D01*
X126251696Y-95495595D01*
X126151061Y-95252641D01*
X126004962Y-95033987D01*
X125819013Y-94848038D01*
X125600359Y-94701939D01*
X125357405Y-94601304D01*
X125099486Y-94550000D01*
X124836514Y-94550000D01*
X124578595Y-94601304D01*
X124335641Y-94701939D01*
X124116987Y-94848038D01*
X123931038Y-95033987D01*
X123784939Y-95252641D01*
X123684304Y-95495595D01*
X123633000Y-95753514D01*
X123633000Y-96016486D01*
X123684304Y-96274405D01*
X123784939Y-96517359D01*
X123931038Y-96736013D01*
X124083001Y-96887976D01*
X124083000Y-98694287D01*
X124019445Y-98746445D01*
X123852618Y-98949725D01*
X123728653Y-99181646D01*
X123652317Y-99433294D01*
X123626541Y-99695000D01*
X123652317Y-99956706D01*
X123728653Y-100208354D01*
X123852618Y-100440275D01*
X124019445Y-100643555D01*
X124083001Y-100695714D01*
X124083000Y-102370479D01*
X124053241Y-102390363D01*
X123853363Y-102590241D01*
X123696320Y-102825273D01*
X123588147Y-103086426D01*
X123533000Y-103363665D01*
X111708000Y-103363665D01*
X111708000Y-88133514D01*
X127443000Y-88133514D01*
X127443000Y-88396486D01*
X127494304Y-88654405D01*
X127594939Y-88897359D01*
X127741038Y-89116013D01*
X127893000Y-89267975D01*
X127893001Y-91904521D01*
X127888719Y-91948000D01*
X127905805Y-92121490D01*
X127956412Y-92288313D01*
X128038590Y-92442059D01*
X128121468Y-92543046D01*
X128121471Y-92543049D01*
X128149184Y-92576817D01*
X128182951Y-92604529D01*
X129163000Y-93584579D01*
X129163001Y-94884286D01*
X129099445Y-94936445D01*
X128932618Y-95139725D01*
X128808653Y-95371646D01*
X128732317Y-95623294D01*
X128706541Y-95885000D01*
X128732317Y-96146706D01*
X128808653Y-96398354D01*
X128932618Y-96630275D01*
X129099445Y-96833555D01*
X129302725Y-97000382D01*
X129534646Y-97124347D01*
X129786294Y-97200683D01*
X129982421Y-97220000D01*
X130113579Y-97220000D01*
X130309706Y-97200683D01*
X130561354Y-97124347D01*
X130793275Y-97000382D01*
X130996555Y-96833555D01*
X131163382Y-96630275D01*
X131287347Y-96398354D01*
X131363683Y-96146706D01*
X131389459Y-95885000D01*
X131363683Y-95623294D01*
X131287347Y-95371646D01*
X131163382Y-95139725D01*
X130996555Y-94936445D01*
X130933000Y-94884287D01*
X130933000Y-93261465D01*
X130937281Y-93217999D01*
X130933000Y-93174533D01*
X130933000Y-93174523D01*
X130920195Y-93044510D01*
X130869589Y-92877687D01*
X130787411Y-92723941D01*
X130676817Y-92589183D01*
X130643050Y-92561471D01*
X129663000Y-91581422D01*
X129663000Y-89267975D01*
X129814962Y-89116013D01*
X129961061Y-88897359D01*
X130061696Y-88654405D01*
X130113000Y-88396486D01*
X130113000Y-88133514D01*
X130061696Y-87875595D01*
X129961061Y-87632641D01*
X129814962Y-87413987D01*
X129629013Y-87228038D01*
X129410359Y-87081939D01*
X129167405Y-86981304D01*
X128909486Y-86930000D01*
X128646514Y-86930000D01*
X128388595Y-86981304D01*
X128145641Y-87081939D01*
X127926987Y-87228038D01*
X127741038Y-87413987D01*
X127594939Y-87632641D01*
X127494304Y-87875595D01*
X127443000Y-88133514D01*
X111708000Y-88133514D01*
X111708000Y-81753967D01*
X123683000Y-81753967D01*
X123683000Y-82076033D01*
X123745832Y-82391912D01*
X123869082Y-82689463D01*
X124048013Y-82957252D01*
X124275748Y-83184987D01*
X124543537Y-83363918D01*
X124841088Y-83487168D01*
X125156967Y-83550000D01*
X125479033Y-83550000D01*
X125794912Y-83487168D01*
X126092463Y-83363918D01*
X126360252Y-83184987D01*
X126587987Y-82957252D01*
X126766918Y-82689463D01*
X126818000Y-82566140D01*
X126869082Y-82689463D01*
X127048013Y-82957252D01*
X127275748Y-83184987D01*
X127543537Y-83363918D01*
X127841088Y-83487168D01*
X128156967Y-83550000D01*
X128479033Y-83550000D01*
X128794912Y-83487168D01*
X129092463Y-83363918D01*
X129360252Y-83184987D01*
X129494826Y-83050413D01*
X130362192Y-83050413D01*
X130457956Y-83314814D01*
X130747571Y-83455704D01*
X131059108Y-83537384D01*
X131380595Y-83556718D01*
X131699675Y-83512961D01*
X132004088Y-83407795D01*
X132178044Y-83314814D01*
X132273808Y-83050413D01*
X131318000Y-82094605D01*
X130362192Y-83050413D01*
X129494826Y-83050413D01*
X129587987Y-82957252D01*
X129766918Y-82689463D01*
X129815346Y-82572549D01*
X129825205Y-82601088D01*
X129918186Y-82775044D01*
X130182587Y-82870808D01*
X131138395Y-81915000D01*
X131124253Y-81900858D01*
X131303858Y-81721253D01*
X131318000Y-81735395D01*
X132273808Y-80779587D01*
X132178044Y-80515186D01*
X131888429Y-80374296D01*
X131576892Y-80292616D01*
X131255405Y-80273282D01*
X131163312Y-80285911D01*
X131214223Y-80235000D01*
X143874161Y-80235000D01*
X143916400Y-80239160D01*
X143958639Y-80235000D01*
X143958646Y-80235000D01*
X144084989Y-80222556D01*
X144247100Y-80173381D01*
X144396502Y-80093524D01*
X144527454Y-79986054D01*
X144554388Y-79953235D01*
X147310341Y-77197282D01*
X147574000Y-77223251D01*
X147867777Y-77194316D01*
X148150264Y-77108625D01*
X148410606Y-76969469D01*
X148638797Y-76782197D01*
X148826069Y-76554006D01*
X148844000Y-76520459D01*
X148861931Y-76554006D01*
X149049203Y-76782197D01*
X149277395Y-76969469D01*
X149537737Y-77108625D01*
X149820224Y-77194316D01*
X150114000Y-77223251D01*
X150407777Y-77194316D01*
X150690264Y-77108625D01*
X150950606Y-76969469D01*
X151178797Y-76782197D01*
X151366069Y-76554006D01*
X151384000Y-76520459D01*
X151401931Y-76554006D01*
X151589203Y-76782197D01*
X151817395Y-76969469D01*
X152077737Y-77108625D01*
X152360224Y-77194316D01*
X152654000Y-77223251D01*
X152947777Y-77194316D01*
X153230264Y-77108625D01*
X153490606Y-76969469D01*
X153718797Y-76782197D01*
X153906069Y-76554006D01*
X154045225Y-76293663D01*
X154130916Y-76011176D01*
X154152600Y-75791018D01*
X154152600Y-75338981D01*
X154130916Y-75118823D01*
X154045225Y-74836336D01*
X153906069Y-74575994D01*
X153718797Y-74347803D01*
X153490605Y-74160531D01*
X153230263Y-74021375D01*
X152947776Y-73935684D01*
X152654000Y-73906749D01*
X152360223Y-73935684D01*
X152077736Y-74021375D01*
X151817394Y-74160531D01*
X151589203Y-74347803D01*
X151401931Y-74575995D01*
X151384000Y-74609541D01*
X151366069Y-74575994D01*
X151178797Y-74347803D01*
X150950605Y-74160531D01*
X150690263Y-74021375D01*
X150407776Y-73935684D01*
X150114000Y-73906749D01*
X149820223Y-73935684D01*
X149537736Y-74021375D01*
X149277394Y-74160531D01*
X149049203Y-74347803D01*
X148861931Y-74575995D01*
X148844000Y-74609541D01*
X148826069Y-74575994D01*
X148638797Y-74347803D01*
X148410605Y-74160531D01*
X148150263Y-74021375D01*
X147867776Y-73935684D01*
X147574000Y-73906749D01*
X147280223Y-73935684D01*
X146997736Y-74021375D01*
X146737394Y-74160531D01*
X146509203Y-74347803D01*
X146321931Y-74575995D01*
X146304000Y-74609541D01*
X146286069Y-74575994D01*
X146098797Y-74347803D01*
X145870605Y-74160531D01*
X145610263Y-74021375D01*
X145327776Y-73935684D01*
X145034000Y-73906749D01*
X144740223Y-73935684D01*
X144457736Y-74021375D01*
X144197394Y-74160531D01*
X143969203Y-74347803D01*
X143781931Y-74575995D01*
X143764000Y-74609541D01*
X143746069Y-74575994D01*
X143558797Y-74347803D01*
X143330605Y-74160531D01*
X143070263Y-74021375D01*
X142787776Y-73935684D01*
X142494000Y-73906749D01*
X142200223Y-73935684D01*
X141917736Y-74021375D01*
X141657394Y-74160531D01*
X141429203Y-74347803D01*
X141241931Y-74575995D01*
X141224000Y-74609541D01*
X141206069Y-74575994D01*
X141018797Y-74347803D01*
X140790605Y-74160531D01*
X140530263Y-74021375D01*
X140247776Y-73935684D01*
X139954000Y-73906749D01*
X139660223Y-73935684D01*
X139377736Y-74021375D01*
X139117394Y-74160531D01*
X138889203Y-74347803D01*
X138701931Y-74575995D01*
X138680576Y-74615947D01*
X138532486Y-74413271D01*
X138316035Y-74214267D01*
X138064919Y-74061314D01*
X137788789Y-73960291D01*
X137773026Y-73957642D01*
X137541000Y-74078783D01*
X137541000Y-75438000D01*
X137561000Y-75438000D01*
X137561000Y-75692000D01*
X137541000Y-75692000D01*
X137541000Y-77051217D01*
X137773026Y-77172358D01*
X137788789Y-77169709D01*
X138064919Y-77068686D01*
X138316035Y-76915733D01*
X138532486Y-76716729D01*
X138680576Y-76514053D01*
X138701931Y-76554006D01*
X138889203Y-76782197D01*
X139117395Y-76969469D01*
X139377737Y-77108625D01*
X139660224Y-77194316D01*
X139954000Y-77223251D01*
X140247777Y-77194316D01*
X140530264Y-77108625D01*
X140790606Y-76969469D01*
X141018797Y-76782197D01*
X141206069Y-76554006D01*
X141224000Y-76520459D01*
X141241931Y-76554006D01*
X141429203Y-76782197D01*
X141657395Y-76969469D01*
X141917737Y-77108625D01*
X142200224Y-77194316D01*
X142328251Y-77206926D01*
X142290177Y-77245000D01*
X129170246Y-77245000D01*
X129128000Y-77240839D01*
X128959410Y-77257444D01*
X128797299Y-77306619D01*
X128745259Y-77334436D01*
X128647898Y-77386476D01*
X128516946Y-77493946D01*
X128490017Y-77526759D01*
X125694014Y-80322762D01*
X125479033Y-80280000D01*
X125156967Y-80280000D01*
X124841088Y-80342832D01*
X124543537Y-80466082D01*
X124275748Y-80645013D01*
X124048013Y-80872748D01*
X123869082Y-81140537D01*
X123745832Y-81438088D01*
X123683000Y-81753967D01*
X111708000Y-81753967D01*
X111708000Y-73735000D01*
X124296293Y-73735000D01*
X124166406Y-73864887D01*
X124166406Y-73864887D01*
G37*
X124166406Y-73864887D02*
X123874536Y-74301702D01*
X123673492Y-74787065D01*
X123571000Y-75302323D01*
X123571000Y-75827677D01*
X123673492Y-76342935D01*
X123874536Y-76828298D01*
X124166406Y-77265113D01*
X124537887Y-77636594D01*
X124974702Y-77928464D01*
X125460065Y-78129508D01*
X125975323Y-78232000D01*
X126500677Y-78232000D01*
X127015935Y-78129508D01*
X127501298Y-77928464D01*
X127938113Y-77636594D01*
X128309594Y-77265113D01*
X128601464Y-76828298D01*
X128657001Y-76694219D01*
X128729203Y-76782197D01*
X128957395Y-76969469D01*
X129217737Y-77108625D01*
X129500224Y-77194316D01*
X129794000Y-77223251D01*
X130087777Y-77194316D01*
X130370264Y-77108625D01*
X130630606Y-76969469D01*
X130858797Y-76782197D01*
X131046069Y-76554006D01*
X131064000Y-76520459D01*
X131081931Y-76554006D01*
X131269203Y-76782197D01*
X131497395Y-76969469D01*
X131757737Y-77108625D01*
X132040224Y-77194316D01*
X132334000Y-77223251D01*
X132627777Y-77194316D01*
X132910264Y-77108625D01*
X133170606Y-76969469D01*
X133398797Y-76782197D01*
X133586069Y-76554006D01*
X133604000Y-76520459D01*
X133621931Y-76554006D01*
X133809203Y-76782197D01*
X134037395Y-76969469D01*
X134297737Y-77108625D01*
X134580224Y-77194316D01*
X134874000Y-77223251D01*
X135167777Y-77194316D01*
X135450264Y-77108625D01*
X135710606Y-76969469D01*
X135938797Y-76782197D01*
X136126069Y-76554006D01*
X136147424Y-76514053D01*
X136295514Y-76716729D01*
X136511965Y-76915733D01*
X136763081Y-77068686D01*
X137039211Y-77169709D01*
X137054974Y-77172358D01*
X137287000Y-77051217D01*
X137287000Y-75692000D01*
X137267000Y-75692000D01*
X137267000Y-75438000D01*
X137287000Y-75438000D01*
X137287000Y-74078783D01*
X137054974Y-73957642D01*
X137039211Y-73960291D01*
X136763081Y-74061314D01*
X136511965Y-74214267D01*
X136295514Y-74413271D01*
X136147424Y-74615947D01*
X136126069Y-74575994D01*
X135938797Y-74347803D01*
X135710605Y-74160531D01*
X135450263Y-74021375D01*
X135167776Y-73935684D01*
X134874000Y-73906749D01*
X134580223Y-73935684D01*
X134297736Y-74021375D01*
X134037394Y-74160531D01*
X133809203Y-74347803D01*
X133621931Y-74575995D01*
X133604000Y-74609541D01*
X133586069Y-74575994D01*
X133398797Y-74347803D01*
X133170605Y-74160531D01*
X132910263Y-74021375D01*
X132627776Y-73935684D01*
X132334000Y-73906749D01*
X132040223Y-73935684D01*
X131757736Y-74021375D01*
X131497394Y-74160531D01*
X131269203Y-74347803D01*
X131081931Y-74575995D01*
X131064000Y-74609541D01*
X131046069Y-74575994D01*
X130858797Y-74347803D01*
X130630605Y-74160531D01*
X130370263Y-74021375D01*
X130087776Y-73935684D01*
X129794000Y-73906749D01*
X129500223Y-73935684D01*
X129217736Y-74021375D01*
X128957394Y-74160531D01*
X128729203Y-74347803D01*
X128657001Y-74435781D01*
X128601464Y-74301702D01*
X128309594Y-73864887D01*
X128179707Y-73735000D01*
X175219909Y-73735000D01*
X176328001Y-74843093D01*
X176328000Y-85944125D01*
X176324565Y-85979000D01*
X176328000Y-86013875D01*
X176328000Y-86013876D01*
X176338273Y-86118183D01*
X176378872Y-86252019D01*
X176444800Y-86375362D01*
X176533525Y-86483474D01*
X176560617Y-86505708D01*
X178868001Y-88813093D01*
X178868001Y-88863294D01*
X178738113Y-88733406D01*
X178301298Y-88441536D01*
X177815935Y-88240492D01*
X177300677Y-88138000D01*
X176775323Y-88138000D01*
X176260065Y-88240492D01*
X175774702Y-88441536D01*
X175337887Y-88733406D01*
X174966406Y-89104887D01*
X174674536Y-89541702D01*
X174473492Y-90027065D01*
X174371000Y-90542323D01*
X174371000Y-91067677D01*
X174473492Y-91582935D01*
X174674536Y-92068298D01*
X174966406Y-92505113D01*
X175337887Y-92876594D01*
X175774702Y-93168464D01*
X176260065Y-93369508D01*
X176775323Y-93472000D01*
X177300677Y-93472000D01*
X177815935Y-93369508D01*
X178301298Y-93168464D01*
X178738113Y-92876594D01*
X178868001Y-92746706D01*
X178868000Y-116803293D01*
X178738113Y-116673406D01*
X178301298Y-116381536D01*
X177815935Y-116180492D01*
X177300677Y-116078000D01*
X176775323Y-116078000D01*
X176260065Y-116180492D01*
X175774702Y-116381536D01*
X175549703Y-116531875D01*
X177125049Y-114956530D01*
X177158817Y-114928817D01*
X177269411Y-114794059D01*
X177351589Y-114640313D01*
X177402195Y-114473490D01*
X177415000Y-114343477D01*
X177415000Y-114343467D01*
X177419281Y-114300001D01*
X177415000Y-114256535D01*
X177415000Y-109263466D01*
X177419281Y-109219999D01*
X177415000Y-109176533D01*
X177415000Y-109176523D01*
X177402195Y-109046510D01*
X177351589Y-108879687D01*
X177269411Y-108725941D01*
X177210343Y-108653967D01*
X177186532Y-108624953D01*
X177186530Y-108624951D01*
X177158817Y-108591183D01*
X177125050Y-108563471D01*
X174781533Y-106219955D01*
X174753816Y-106186182D01*
X174619058Y-106075588D01*
X174465312Y-105993410D01*
X174298489Y-105942804D01*
X174168476Y-105929999D01*
X174168468Y-105929999D01*
X174124999Y-105925718D01*
X174081530Y-105929999D01*
X173085000Y-105929999D01*
X173085000Y-105653967D01*
X173048103Y-105468475D01*
X175855049Y-102661530D01*
X175888817Y-102633817D01*
X175921897Y-102593510D01*
X175999411Y-102499059D01*
X176081589Y-102345314D01*
X176132195Y-102178490D01*
X176137078Y-102128912D01*
X176145000Y-102048477D01*
X176145000Y-102048469D01*
X176149281Y-102005000D01*
X176145000Y-101961531D01*
X176145000Y-99690465D01*
X176149281Y-99646999D01*
X176145000Y-99603533D01*
X176145000Y-99603523D01*
X176132195Y-99473510D01*
X176081589Y-99306687D01*
X175999411Y-99152941D01*
X175888817Y-99018183D01*
X175855051Y-98990472D01*
X164224578Y-87360000D01*
X164499033Y-87360000D01*
X164814912Y-87297168D01*
X165112463Y-87173918D01*
X165380252Y-86994987D01*
X165607987Y-86767252D01*
X165786918Y-86499463D01*
X165838000Y-86376140D01*
X165889082Y-86499463D01*
X166068013Y-86767252D01*
X166295748Y-86994987D01*
X166563537Y-87173918D01*
X166861088Y-87297168D01*
X167176967Y-87360000D01*
X167499033Y-87360000D01*
X167814912Y-87297168D01*
X168112463Y-87173918D01*
X168380252Y-86994987D01*
X168607987Y-86767252D01*
X168786918Y-86499463D01*
X168838000Y-86376140D01*
X168889082Y-86499463D01*
X169068013Y-86767252D01*
X169295748Y-86994987D01*
X169563537Y-87173918D01*
X169861088Y-87297168D01*
X170176967Y-87360000D01*
X170499033Y-87360000D01*
X170814912Y-87297168D01*
X171112463Y-87173918D01*
X171380252Y-86994987D01*
X171607987Y-86767252D01*
X171786918Y-86499463D01*
X171910168Y-86201912D01*
X171973000Y-85886033D01*
X171973000Y-85563967D01*
X171910168Y-85248088D01*
X171786918Y-84950537D01*
X171607987Y-84682748D01*
X171380252Y-84455013D01*
X171223000Y-84349941D01*
X171223000Y-81608465D01*
X171227281Y-81564999D01*
X171223000Y-81521533D01*
X171223000Y-81521523D01*
X171210195Y-81391510D01*
X171159589Y-81224687D01*
X171077411Y-81070941D01*
X171040297Y-81025718D01*
X170994532Y-80969953D01*
X170994530Y-80969951D01*
X170966817Y-80936183D01*
X170933050Y-80908471D01*
X170303000Y-80278422D01*
X170303000Y-76929753D01*
X170482797Y-76782197D01*
X170670069Y-76554006D01*
X170688000Y-76520459D01*
X170705931Y-76554006D01*
X170893203Y-76782197D01*
X171121395Y-76969469D01*
X171381737Y-77108625D01*
X171664224Y-77194316D01*
X171958000Y-77223251D01*
X172251777Y-77194316D01*
X172534264Y-77108625D01*
X172794606Y-76969469D01*
X173022797Y-76782197D01*
X173210069Y-76554006D01*
X173228000Y-76520459D01*
X173245931Y-76554006D01*
X173433203Y-76782197D01*
X173661395Y-76969469D01*
X173921737Y-77108625D01*
X174204224Y-77194316D01*
X174498000Y-77223251D01*
X174791777Y-77194316D01*
X175074264Y-77108625D01*
X175334606Y-76969469D01*
X175562797Y-76782197D01*
X175750069Y-76554006D01*
X175889225Y-76293663D01*
X175974916Y-76011176D01*
X175996600Y-75791018D01*
X175996600Y-75338981D01*
X175974916Y-75118823D01*
X175889225Y-74836336D01*
X175750069Y-74575994D01*
X175562797Y-74347803D01*
X175334605Y-74160531D01*
X175074263Y-74021375D01*
X174791776Y-73935684D01*
X174498000Y-73906749D01*
X174204223Y-73935684D01*
X173921736Y-74021375D01*
X173661394Y-74160531D01*
X173433203Y-74347803D01*
X173245931Y-74575995D01*
X173228000Y-74609541D01*
X173210069Y-74575994D01*
X173022797Y-74347803D01*
X172794605Y-74160531D01*
X172534263Y-74021375D01*
X172251776Y-73935684D01*
X171958000Y-73906749D01*
X171664223Y-73935684D01*
X171381736Y-74021375D01*
X171121394Y-74160531D01*
X170893203Y-74347803D01*
X170705931Y-74575995D01*
X170688000Y-74609541D01*
X170670069Y-74575994D01*
X170482797Y-74347803D01*
X170254605Y-74160531D01*
X169994263Y-74021375D01*
X169711776Y-73935684D01*
X169418000Y-73906749D01*
X169124223Y-73935684D01*
X168841736Y-74021375D01*
X168581394Y-74160531D01*
X168353203Y-74347803D01*
X168165931Y-74575995D01*
X168148000Y-74609541D01*
X168130069Y-74575994D01*
X167942797Y-74347803D01*
X167714605Y-74160531D01*
X167454263Y-74021375D01*
X167171776Y-73935684D01*
X166878000Y-73906749D01*
X166584223Y-73935684D01*
X166301736Y-74021375D01*
X166041394Y-74160531D01*
X165813203Y-74347803D01*
X165625931Y-74575995D01*
X165608000Y-74609541D01*
X165590069Y-74575994D01*
X165402797Y-74347803D01*
X165174605Y-74160531D01*
X164914263Y-74021375D01*
X164631776Y-73935684D01*
X164338000Y-73906749D01*
X164044223Y-73935684D01*
X163761736Y-74021375D01*
X163501394Y-74160531D01*
X163273203Y-74347803D01*
X163085931Y-74575995D01*
X163068000Y-74609541D01*
X163050069Y-74575994D01*
X162862797Y-74347803D01*
X162634605Y-74160531D01*
X162374263Y-74021375D01*
X162091776Y-73935684D01*
X161798000Y-73906749D01*
X161504223Y-73935684D01*
X161221736Y-74021375D01*
X160961394Y-74160531D01*
X160733203Y-74347803D01*
X160545931Y-74575995D01*
X160528000Y-74609541D01*
X160510069Y-74575994D01*
X160322797Y-74347803D01*
X160094605Y-74160531D01*
X159834263Y-74021375D01*
X159551776Y-73935684D01*
X159258000Y-73906749D01*
X158964223Y-73935684D01*
X158681736Y-74021375D01*
X158421394Y-74160531D01*
X158193203Y-74347803D01*
X158005931Y-74575995D01*
X157988000Y-74609541D01*
X157970069Y-74575994D01*
X157782797Y-74347803D01*
X157554605Y-74160531D01*
X157294263Y-74021375D01*
X157011776Y-73935684D01*
X156718000Y-73906749D01*
X156424223Y-73935684D01*
X156141736Y-74021375D01*
X155881394Y-74160531D01*
X155653203Y-74347803D01*
X155465931Y-74575995D01*
X155326775Y-74836337D01*
X155241084Y-75118824D01*
X155219400Y-75338982D01*
X155219400Y-75791019D01*
X155241084Y-76011177D01*
X155326775Y-76293664D01*
X155465931Y-76554006D01*
X155653203Y-76782197D01*
X155881395Y-76969469D01*
X156141737Y-77108625D01*
X156424224Y-77194316D01*
X156718000Y-77223251D01*
X157011777Y-77194316D01*
X157294264Y-77108625D01*
X157554606Y-76969469D01*
X157782797Y-76782197D01*
X157970069Y-76554006D01*
X157988000Y-76520459D01*
X158005931Y-76554006D01*
X158193203Y-76782197D01*
X158421395Y-76969469D01*
X158681737Y-77108625D01*
X158964224Y-77194316D01*
X159258000Y-77223251D01*
X159551777Y-77194316D01*
X159834264Y-77108625D01*
X160094606Y-76969469D01*
X160322797Y-76782197D01*
X160510069Y-76554006D01*
X160528000Y-76520459D01*
X160545931Y-76554006D01*
X160733203Y-76782197D01*
X160961395Y-76969469D01*
X161221737Y-77108625D01*
X161504224Y-77194316D01*
X161798000Y-77223251D01*
X162091777Y-77194316D01*
X162374264Y-77108625D01*
X162634606Y-76969469D01*
X162862797Y-76782197D01*
X163050069Y-76554006D01*
X163068000Y-76520459D01*
X163085931Y-76554006D01*
X163273203Y-76782197D01*
X163453000Y-76929752D01*
X163453001Y-84349940D01*
X163295748Y-84455013D01*
X163068013Y-84682748D01*
X162889082Y-84950537D01*
X162838000Y-85073860D01*
X162786918Y-84950537D01*
X162607987Y-84682748D01*
X162380252Y-84455013D01*
X162112463Y-84276082D01*
X161814912Y-84152832D01*
X161499033Y-84090000D01*
X161176967Y-84090000D01*
X160861088Y-84152832D01*
X160563537Y-84276082D01*
X160295748Y-84455013D01*
X160068013Y-84682748D01*
X159889082Y-84950537D01*
X159840654Y-85067451D01*
X159830795Y-85038912D01*
X159737814Y-84864956D01*
X159473413Y-84769192D01*
X158517605Y-85725000D01*
X158531748Y-85739143D01*
X158352143Y-85918748D01*
X158338000Y-85904605D01*
X157382192Y-86860413D01*
X157477956Y-87124814D01*
X157767571Y-87265704D01*
X158079108Y-87347384D01*
X158400595Y-87366718D01*
X158451714Y-87359708D01*
X158431422Y-87380000D01*
X134858713Y-87380000D01*
X134806555Y-87316445D01*
X134743000Y-87264287D01*
X134743000Y-86091578D01*
X134913044Y-85921534D01*
X134946817Y-85893817D01*
X135033991Y-85787595D01*
X156696282Y-85787595D01*
X156740039Y-86106675D01*
X156845205Y-86411088D01*
X156938186Y-86585044D01*
X157202587Y-86680808D01*
X158158395Y-85725000D01*
X157202587Y-84769192D01*
X156938186Y-84864956D01*
X156797296Y-85154571D01*
X156715616Y-85466108D01*
X156696282Y-85787595D01*
X135033991Y-85787595D01*
X135057411Y-85759059D01*
X135139589Y-85605313D01*
X135190195Y-85438490D01*
X135203000Y-85308477D01*
X135203000Y-85308467D01*
X135207281Y-85265001D01*
X135203000Y-85221535D01*
X135203000Y-84589587D01*
X157382192Y-84589587D01*
X158338000Y-85545395D01*
X159293808Y-84589587D01*
X159198044Y-84325186D01*
X158908429Y-84184296D01*
X158596892Y-84102616D01*
X158275405Y-84083282D01*
X157956325Y-84127039D01*
X157651912Y-84232205D01*
X157477956Y-84325186D01*
X157382192Y-84589587D01*
X135203000Y-84589587D01*
X135203000Y-83290059D01*
X135360252Y-83184987D01*
X135587987Y-82957252D01*
X135766918Y-82689463D01*
X135890168Y-82391912D01*
X135953000Y-82076033D01*
X135953000Y-81753967D01*
X135890168Y-81438088D01*
X135766918Y-81140537D01*
X135587987Y-80872748D01*
X135360252Y-80645013D01*
X135092463Y-80466082D01*
X134794912Y-80342832D01*
X134479033Y-80280000D01*
X134156967Y-80280000D01*
X133841088Y-80342832D01*
X133543537Y-80466082D01*
X133275748Y-80645013D01*
X133048013Y-80872748D01*
X132869082Y-81140537D01*
X132820654Y-81257451D01*
X132810795Y-81228912D01*
X132717814Y-81054956D01*
X132453413Y-80959192D01*
X131497605Y-81915000D01*
X132453413Y-82870808D01*
X132717814Y-82775044D01*
X132818662Y-82567739D01*
X132869082Y-82689463D01*
X133048013Y-82957252D01*
X133275748Y-83184987D01*
X133433000Y-83290060D01*
X133433001Y-84898421D01*
X133262956Y-85068466D01*
X133229183Y-85096183D01*
X133118589Y-85230942D01*
X133036411Y-85384688D01*
X133020090Y-85438490D01*
X132985806Y-85551509D01*
X132985805Y-85551511D01*
X132973000Y-85681524D01*
X132973000Y-85681531D01*
X132968719Y-85725000D01*
X132973000Y-85768469D01*
X132973001Y-87264286D01*
X132909445Y-87316445D01*
X132742618Y-87519725D01*
X132618653Y-87751646D01*
X132542317Y-88003294D01*
X132516541Y-88265000D01*
X132542317Y-88526706D01*
X132618653Y-88778354D01*
X132742618Y-89010275D01*
X132909445Y-89213555D01*
X133112725Y-89380382D01*
X133344646Y-89504347D01*
X133596294Y-89580683D01*
X133792421Y-89600000D01*
X133923579Y-89600000D01*
X134119706Y-89580683D01*
X134371354Y-89504347D01*
X134603275Y-89380382D01*
X134806555Y-89213555D01*
X134858713Y-89150000D01*
X158754531Y-89150000D01*
X158798000Y-89154281D01*
X158841469Y-89150000D01*
X158841477Y-89150000D01*
X158971490Y-89137195D01*
X159138313Y-89086589D01*
X159292059Y-89004411D01*
X159426817Y-88893817D01*
X159454534Y-88860044D01*
X160991475Y-87323104D01*
X161176967Y-87360000D01*
X161499033Y-87360000D01*
X161684525Y-87323103D01*
X174375000Y-100013579D01*
X174375001Y-101638420D01*
X173080885Y-102932536D01*
X173091718Y-102752405D01*
X173047961Y-102433325D01*
X172942795Y-102128912D01*
X172849814Y-101954956D01*
X172585413Y-101859192D01*
X171629605Y-102815000D01*
X171643748Y-102829143D01*
X171464143Y-103008748D01*
X171450000Y-102994605D01*
X170494192Y-103950413D01*
X170589956Y-104214814D01*
X170797261Y-104315662D01*
X170675537Y-104366082D01*
X170407748Y-104545013D01*
X170180013Y-104772748D01*
X170001082Y-105040537D01*
X169877832Y-105338088D01*
X169815000Y-105653967D01*
X169815000Y-105976033D01*
X169877832Y-106291912D01*
X170001082Y-106589463D01*
X170180013Y-106857252D01*
X170407748Y-107084987D01*
X170675537Y-107263918D01*
X170798860Y-107315000D01*
X170675537Y-107366082D01*
X170407748Y-107545013D01*
X170180013Y-107772748D01*
X170001082Y-108040537D01*
X169877832Y-108338088D01*
X169815000Y-108653967D01*
X169815000Y-108976033D01*
X169877832Y-109291912D01*
X170001082Y-109589463D01*
X170180013Y-109857252D01*
X170407748Y-110084987D01*
X170675537Y-110263918D01*
X170798860Y-110315000D01*
X170675537Y-110366082D01*
X170407748Y-110545013D01*
X170180013Y-110772748D01*
X170001082Y-111040537D01*
X169877832Y-111338088D01*
X169815000Y-111653967D01*
X169815000Y-111976033D01*
X169851896Y-112161525D01*
X168363779Y-113649643D01*
X168306583Y-113696583D01*
X168195989Y-113831341D01*
X168113811Y-113985087D01*
X168063205Y-114151910D01*
X168046118Y-114325400D01*
X168050401Y-114368887D01*
X168050400Y-120606531D01*
X168046119Y-120650000D01*
X168050400Y-120693469D01*
X168050400Y-120693476D01*
X168063205Y-120823489D01*
X168113811Y-120990312D01*
X168195989Y-121144058D01*
X168306583Y-121278817D01*
X168340356Y-121306534D01*
X169220066Y-122186244D01*
X169124223Y-122195684D01*
X168841736Y-122281375D01*
X168581394Y-122420531D01*
X168353203Y-122607803D01*
X168165931Y-122835995D01*
X168148000Y-122869541D01*
X168130069Y-122835994D01*
X167942797Y-122607803D01*
X167714605Y-122420531D01*
X167454263Y-122281375D01*
X167171776Y-122195684D01*
X166878000Y-122166749D01*
X166584223Y-122195684D01*
X166301736Y-122281375D01*
X166041394Y-122420531D01*
X165813203Y-122607803D01*
X165625931Y-122835995D01*
X165608000Y-122869541D01*
X165590069Y-122835994D01*
X165402797Y-122607803D01*
X165174605Y-122420531D01*
X164914263Y-122281375D01*
X164631776Y-122195684D01*
X164338000Y-122166749D01*
X164044223Y-122195684D01*
X163761736Y-122281375D01*
X163501394Y-122420531D01*
X163273203Y-122607803D01*
X163085931Y-122835995D01*
X163068000Y-122869541D01*
X163050069Y-122835994D01*
X162862797Y-122607803D01*
X162683000Y-122460248D01*
X162683000Y-116698578D01*
X163663050Y-115718529D01*
X163696817Y-115690817D01*
X163807411Y-115556059D01*
X163889589Y-115402313D01*
X163940195Y-115235490D01*
X163953000Y-115105477D01*
X163953000Y-115105467D01*
X163957281Y-115062001D01*
X163953000Y-115018535D01*
X163953000Y-113529521D01*
X163982759Y-113509637D01*
X164182637Y-113309759D01*
X164339680Y-113074727D01*
X164447853Y-112813574D01*
X164503000Y-112536335D01*
X164503000Y-112253665D01*
X164447853Y-111976426D01*
X164339680Y-111715273D01*
X164182637Y-111480241D01*
X163982759Y-111280363D01*
X163747727Y-111123320D01*
X163486574Y-111015147D01*
X163209335Y-110960000D01*
X162926665Y-110960000D01*
X162649426Y-111015147D01*
X162388273Y-111123320D01*
X162153241Y-111280363D01*
X161953363Y-111480241D01*
X161933479Y-111510000D01*
X161021579Y-111510000D01*
X160143000Y-110631422D01*
X160143000Y-108387702D01*
X162254903Y-108387702D01*
X162326486Y-108631671D01*
X162581996Y-108752571D01*
X162856184Y-108821300D01*
X163138512Y-108835217D01*
X163418130Y-108793787D01*
X163684292Y-108698603D01*
X163809514Y-108631671D01*
X163881097Y-108387702D01*
X163068000Y-107574605D01*
X162254903Y-108387702D01*
X160143000Y-108387702D01*
X160143000Y-108315713D01*
X160206555Y-108263555D01*
X160373382Y-108060275D01*
X160497347Y-107828354D01*
X160573683Y-107576706D01*
X160584634Y-107465512D01*
X161627783Y-107465512D01*
X161669213Y-107745130D01*
X161764397Y-108011292D01*
X161831329Y-108136514D01*
X162075298Y-108208097D01*
X162888395Y-107395000D01*
X163247605Y-107395000D01*
X164060702Y-108208097D01*
X164304671Y-108136514D01*
X164425571Y-107881004D01*
X164494300Y-107606816D01*
X164508217Y-107324488D01*
X164466787Y-107044870D01*
X164371603Y-106778708D01*
X164304671Y-106653486D01*
X164060702Y-106581903D01*
X163247605Y-107395000D01*
X162888395Y-107395000D01*
X162075298Y-106581903D01*
X161831329Y-106653486D01*
X161710429Y-106908996D01*
X161641700Y-107183184D01*
X161627783Y-107465512D01*
X160584634Y-107465512D01*
X160599459Y-107315000D01*
X160573683Y-107053294D01*
X160497347Y-106801646D01*
X160373382Y-106569725D01*
X160235979Y-106402298D01*
X162254903Y-106402298D01*
X163068000Y-107215395D01*
X163881097Y-106402298D01*
X163809514Y-106158329D01*
X163554004Y-106037429D01*
X163279816Y-105968700D01*
X162997488Y-105954783D01*
X162717870Y-105996213D01*
X162451708Y-106091397D01*
X162326486Y-106158329D01*
X162254903Y-106402298D01*
X160235979Y-106402298D01*
X160206555Y-106366445D01*
X160003275Y-106199618D01*
X159771354Y-106075653D01*
X159519706Y-105999317D01*
X159323579Y-105980000D01*
X159192421Y-105980000D01*
X158996294Y-105999317D01*
X158744646Y-106075653D01*
X158512725Y-106199618D01*
X158309445Y-106366445D01*
X158142618Y-106569725D01*
X158018653Y-106801646D01*
X157942317Y-107053294D01*
X157916541Y-107315000D01*
X157942317Y-107576706D01*
X158018653Y-107828354D01*
X158142618Y-108060275D01*
X158309445Y-108263555D01*
X158373001Y-108315714D01*
X158373000Y-110954531D01*
X158368719Y-110998000D01*
X158373000Y-111041469D01*
X158373000Y-111041476D01*
X158381061Y-111123320D01*
X158385805Y-111171490D01*
X158388845Y-111181510D01*
X158436411Y-111338312D01*
X158518589Y-111492058D01*
X158629183Y-111626817D01*
X158662956Y-111654534D01*
X159998470Y-112990049D01*
X160026183Y-113023817D01*
X160059951Y-113051530D01*
X160059953Y-113051532D01*
X160086692Y-113073476D01*
X160160941Y-113134411D01*
X160314687Y-113216589D01*
X160481510Y-113267195D01*
X160611523Y-113280000D01*
X160611533Y-113280000D01*
X160654999Y-113284281D01*
X160698465Y-113280000D01*
X161933479Y-113280000D01*
X161953363Y-113309759D01*
X162153241Y-113509637D01*
X162183001Y-113529522D01*
X162183000Y-114695421D01*
X161202951Y-115675471D01*
X161169184Y-115703183D01*
X161141471Y-115736951D01*
X161141468Y-115736954D01*
X161058590Y-115837941D01*
X160976412Y-115991687D01*
X160925805Y-116158510D01*
X160908719Y-116332000D01*
X160913001Y-116375479D01*
X160913000Y-122460247D01*
X160733203Y-122607803D01*
X160545931Y-122835995D01*
X160406775Y-123096337D01*
X160321084Y-123378824D01*
X160299400Y-123598982D01*
X160299400Y-124051019D01*
X160321084Y-124271177D01*
X160406775Y-124553664D01*
X160545931Y-124814006D01*
X160571367Y-124845000D01*
X157944633Y-124845000D01*
X157970069Y-124814006D01*
X158109225Y-124553663D01*
X158194916Y-124271176D01*
X158216600Y-124051018D01*
X158216600Y-123598981D01*
X158194916Y-123378823D01*
X158109225Y-123096336D01*
X157970069Y-122835994D01*
X157782797Y-122607803D01*
X157554605Y-122420531D01*
X157294263Y-122281375D01*
X157011776Y-122195684D01*
X156718000Y-122166749D01*
X156424223Y-122195684D01*
X156141736Y-122281375D01*
X155881394Y-122420531D01*
X155653203Y-122607803D01*
X155465931Y-122835995D01*
X155444576Y-122875947D01*
X155296486Y-122673271D01*
X155080035Y-122474267D01*
X154828919Y-122321314D01*
X154552789Y-122220291D01*
X154537026Y-122217642D01*
X154305000Y-122338783D01*
X154305000Y-123698000D01*
X154325000Y-123698000D01*
X154325000Y-123952000D01*
X154305000Y-123952000D01*
X154305000Y-123972000D01*
X154051000Y-123972000D01*
X154051000Y-123952000D01*
X151765000Y-123952000D01*
X151765000Y-123972000D01*
X151511000Y-123972000D01*
X151511000Y-123952000D01*
X151491000Y-123952000D01*
X151491000Y-123698000D01*
X151511000Y-123698000D01*
X151511000Y-122338783D01*
X151765000Y-122338783D01*
X151765000Y-123698000D01*
X154051000Y-123698000D01*
X154051000Y-122338783D01*
X153818974Y-122217642D01*
X153803211Y-122220291D01*
X153527081Y-122321314D01*
X153275965Y-122474267D01*
X153059514Y-122673271D01*
X152908000Y-122880633D01*
X152756486Y-122673271D01*
X152540035Y-122474267D01*
X152288919Y-122321314D01*
X152012789Y-122220291D01*
X151997026Y-122217642D01*
X151765000Y-122338783D01*
X151511000Y-122338783D01*
X151278974Y-122217642D01*
X151263211Y-122220291D01*
X150987081Y-122321314D01*
X150735965Y-122474267D01*
X150519514Y-122673271D01*
X150371424Y-122875947D01*
X150350069Y-122835994D01*
X150162797Y-122607803D01*
X149983000Y-122460248D01*
X149983000Y-120508578D01*
X156805049Y-113686530D01*
X156838817Y-113658817D01*
X156949411Y-113524059D01*
X157031589Y-113370313D01*
X157082195Y-113203490D01*
X157095000Y-113073477D01*
X157095000Y-113073469D01*
X157099281Y-113030000D01*
X157095000Y-112986531D01*
X157095000Y-105453469D01*
X157099281Y-105410000D01*
X157095000Y-105366531D01*
X157095000Y-105366523D01*
X157082195Y-105236510D01*
X157031589Y-105069687D01*
X156949411Y-104915941D01*
X156905611Y-104862571D01*
X156866532Y-104814953D01*
X156866530Y-104814951D01*
X156838817Y-104781183D01*
X156805050Y-104753471D01*
X156333000Y-104281422D01*
X156333000Y-103369521D01*
X156362759Y-103349637D01*
X156562637Y-103149759D01*
X156719680Y-102914727D01*
X156735060Y-102877595D01*
X169808282Y-102877595D01*
X169852039Y-103196675D01*
X169957205Y-103501088D01*
X170050186Y-103675044D01*
X170314587Y-103770808D01*
X171270395Y-102815000D01*
X170314587Y-101859192D01*
X170050186Y-101954956D01*
X169909296Y-102244571D01*
X169827616Y-102556108D01*
X169808282Y-102877595D01*
X156735060Y-102877595D01*
X156827853Y-102653574D01*
X156883000Y-102376335D01*
X156883000Y-102093665D01*
X156827853Y-101816426D01*
X156771173Y-101679587D01*
X170494192Y-101679587D01*
X171450000Y-102635395D01*
X172405808Y-101679587D01*
X172310044Y-101415186D01*
X172020429Y-101274296D01*
X171708892Y-101192616D01*
X171387405Y-101173282D01*
X171068325Y-101217039D01*
X170763912Y-101322205D01*
X170589956Y-101415186D01*
X170494192Y-101679587D01*
X156771173Y-101679587D01*
X156719680Y-101555273D01*
X156562637Y-101320241D01*
X156362759Y-101120363D01*
X156127727Y-100963320D01*
X155866574Y-100855147D01*
X155589335Y-100800000D01*
X155306665Y-100800000D01*
X155271561Y-100806983D01*
X154604534Y-100139956D01*
X154576817Y-100106183D01*
X154442059Y-99995589D01*
X154288313Y-99913411D01*
X154121490Y-99862805D01*
X153991477Y-99850000D01*
X153991469Y-99850000D01*
X153948000Y-99845719D01*
X153904531Y-99850000D01*
X144023059Y-99850000D01*
X143917987Y-99692748D01*
X143690252Y-99465013D01*
X143422463Y-99286082D01*
X143299140Y-99235000D01*
X143422463Y-99183918D01*
X143690252Y-99004987D01*
X143917987Y-98777252D01*
X144096918Y-98509463D01*
X144213627Y-98227702D01*
X154634903Y-98227702D01*
X154706486Y-98471671D01*
X154961996Y-98592571D01*
X155236184Y-98661300D01*
X155518512Y-98675217D01*
X155798130Y-98633787D01*
X156064292Y-98538603D01*
X156189514Y-98471671D01*
X156261097Y-98227702D01*
X155448000Y-97414605D01*
X154634903Y-98227702D01*
X144213627Y-98227702D01*
X144220168Y-98211912D01*
X144283000Y-97896033D01*
X144283000Y-97573967D01*
X144229602Y-97305512D01*
X154007783Y-97305512D01*
X154049213Y-97585130D01*
X154144397Y-97851292D01*
X154211329Y-97976514D01*
X154455298Y-98048097D01*
X155268395Y-97235000D01*
X155627605Y-97235000D01*
X156440702Y-98048097D01*
X156684671Y-97976514D01*
X156805571Y-97721004D01*
X156874300Y-97446816D01*
X156888217Y-97164488D01*
X156846787Y-96884870D01*
X156751603Y-96618708D01*
X156684671Y-96493486D01*
X156440702Y-96421903D01*
X155627605Y-97235000D01*
X155268395Y-97235000D01*
X154455298Y-96421903D01*
X154211329Y-96493486D01*
X154090429Y-96748996D01*
X154021700Y-97023184D01*
X154007783Y-97305512D01*
X144229602Y-97305512D01*
X144220168Y-97258088D01*
X144096918Y-96960537D01*
X143917987Y-96692748D01*
X143690252Y-96465013D01*
X143422463Y-96286082D01*
X143316760Y-96242298D01*
X154634903Y-96242298D01*
X155448000Y-97055395D01*
X156261097Y-96242298D01*
X156189514Y-95998329D01*
X155934004Y-95877429D01*
X155659816Y-95808700D01*
X155377488Y-95794783D01*
X155097870Y-95836213D01*
X154831708Y-95931397D01*
X154706486Y-95998329D01*
X154634903Y-96242298D01*
X143316760Y-96242298D01*
X143124912Y-96162832D01*
X142809033Y-96100000D01*
X142486967Y-96100000D01*
X142171088Y-96162832D01*
X141873537Y-96286082D01*
X141605748Y-96465013D01*
X141378013Y-96692748D01*
X141199082Y-96960537D01*
X141075832Y-97258088D01*
X141013000Y-97573967D01*
X141013000Y-97896033D01*
X141075832Y-98211912D01*
X141199082Y-98509463D01*
X141378013Y-98777252D01*
X141605748Y-99004987D01*
X141873537Y-99183918D01*
X141996860Y-99235000D01*
X141873537Y-99286082D01*
X141605748Y-99465013D01*
X141378013Y-99692748D01*
X141199082Y-99960537D01*
X141075832Y-100258088D01*
X141013000Y-100573967D01*
X141013000Y-100896033D01*
X141075832Y-101211912D01*
X141199082Y-101509463D01*
X141378013Y-101777252D01*
X141605748Y-102004987D01*
X141873537Y-102183918D01*
X141996860Y-102235000D01*
X141873537Y-102286082D01*
X141605748Y-102465013D01*
X141378013Y-102692748D01*
X141199082Y-102960537D01*
X141075832Y-103258088D01*
X141013000Y-103573967D01*
X141013000Y-103896033D01*
X141049896Y-104081525D01*
X139104951Y-106026471D01*
X139071184Y-106054183D01*
X139043471Y-106087951D01*
X139043468Y-106087954D01*
X138960590Y-106188941D01*
X138878412Y-106342687D01*
X138827805Y-106509510D01*
X138810719Y-106683000D01*
X138815001Y-106726479D01*
X138815000Y-110123421D01*
X137428422Y-111510000D01*
X131182521Y-111510000D01*
X131162637Y-111480241D01*
X130962759Y-111280363D01*
X130727727Y-111123320D01*
X130466574Y-111015147D01*
X130189335Y-110960000D01*
X129906665Y-110960000D01*
X129629426Y-111015147D01*
X129368273Y-111123320D01*
X129133241Y-111280363D01*
X128933363Y-111480241D01*
X128776320Y-111715273D01*
X128668147Y-111976426D01*
X128613000Y-112253665D01*
X128613000Y-112536335D01*
X128668147Y-112813574D01*
X128776320Y-113074727D01*
X128933363Y-113309759D01*
X129133241Y-113509637D01*
X129163001Y-113529522D01*
X129163000Y-116474287D01*
X129099445Y-116526445D01*
X128932618Y-116729725D01*
X128808653Y-116961646D01*
X128732317Y-117213294D01*
X128706541Y-117475000D01*
X128732317Y-117736706D01*
X128808653Y-117988354D01*
X128932618Y-118220275D01*
X129099445Y-118423555D01*
X129302725Y-118590382D01*
X129534646Y-118714347D01*
X129786294Y-118790683D01*
X129982421Y-118810000D01*
X130113579Y-118810000D01*
X130309706Y-118790683D01*
X130561354Y-118714347D01*
X130793275Y-118590382D01*
X130996555Y-118423555D01*
X131163382Y-118220275D01*
X131287347Y-117988354D01*
X131363683Y-117736706D01*
X131389459Y-117475000D01*
X131363683Y-117213294D01*
X131287347Y-116961646D01*
X131163382Y-116729725D01*
X130996555Y-116526445D01*
X130933000Y-116474287D01*
X130933000Y-113529521D01*
X130962759Y-113509637D01*
X131162637Y-113309759D01*
X131182521Y-113280000D01*
X137751531Y-113280000D01*
X137795000Y-113284281D01*
X137838469Y-113280000D01*
X137838477Y-113280000D01*
X137968490Y-113267195D01*
X138135313Y-113216589D01*
X138289059Y-113134411D01*
X138423817Y-113023817D01*
X138451534Y-112990044D01*
X140295050Y-111146529D01*
X140328817Y-111118817D01*
X140393061Y-111040537D01*
X140439411Y-110984059D01*
X140505218Y-110860941D01*
X140521589Y-110830313D01*
X140572195Y-110663490D01*
X140585000Y-110533477D01*
X140585000Y-110533469D01*
X140589281Y-110490000D01*
X140585000Y-110446531D01*
X140585000Y-107049578D01*
X141013000Y-106621578D01*
X141013000Y-106896033D01*
X141075832Y-107211912D01*
X141199082Y-107509463D01*
X141378013Y-107777252D01*
X141605748Y-108004987D01*
X141873537Y-108183918D01*
X142171088Y-108307168D01*
X142486967Y-108370000D01*
X142809033Y-108370000D01*
X143124912Y-108307168D01*
X143422463Y-108183918D01*
X143690252Y-108004987D01*
X143917987Y-107777252D01*
X144096918Y-107509463D01*
X144220168Y-107211912D01*
X144283000Y-106896033D01*
X144283000Y-106573967D01*
X144220168Y-106258088D01*
X144096918Y-105960537D01*
X143917987Y-105692748D01*
X143690252Y-105465013D01*
X143422463Y-105286082D01*
X143299140Y-105235000D01*
X143422463Y-105183918D01*
X143690252Y-105004987D01*
X143917987Y-104777252D01*
X144023059Y-104620000D01*
X146548422Y-104620000D01*
X149838470Y-107910049D01*
X149866183Y-107943817D01*
X149899951Y-107971530D01*
X149899953Y-107971532D01*
X150000941Y-108054411D01*
X150154686Y-108136589D01*
X150226811Y-108158468D01*
X150321510Y-108187195D01*
X150451523Y-108200000D01*
X150451531Y-108200000D01*
X150495000Y-108204281D01*
X150538469Y-108200000D01*
X153175025Y-108200000D01*
X153326987Y-108351962D01*
X153545641Y-108498061D01*
X153788595Y-108598696D01*
X154046514Y-108650000D01*
X154309486Y-108650000D01*
X154567405Y-108598696D01*
X154810359Y-108498061D01*
X155029013Y-108351962D01*
X155214962Y-108166013D01*
X155325000Y-108001328D01*
X155325001Y-112663420D01*
X148502956Y-119485466D01*
X148469183Y-119513183D01*
X148358589Y-119647942D01*
X148276411Y-119801688D01*
X148225805Y-119968511D01*
X148213000Y-120098524D01*
X148213000Y-120098531D01*
X148208719Y-120142000D01*
X148213000Y-120185469D01*
X148213001Y-122460247D01*
X148033203Y-122607803D01*
X147845931Y-122835995D01*
X147828000Y-122869541D01*
X147810069Y-122835994D01*
X147622797Y-122607803D01*
X147394605Y-122420531D01*
X147134263Y-122281375D01*
X146851776Y-122195684D01*
X146558000Y-122166749D01*
X146264223Y-122195684D01*
X145981736Y-122281375D01*
X145721394Y-122420531D01*
X145493203Y-122607803D01*
X145305931Y-122835995D01*
X145288000Y-122869541D01*
X145270069Y-122835994D01*
X145082797Y-122607803D01*
X144854605Y-122420531D01*
X144594263Y-122281375D01*
X144311776Y-122195684D01*
X144018000Y-122166749D01*
X143724223Y-122195684D01*
X143441736Y-122281375D01*
X143181394Y-122420531D01*
X142953203Y-122607803D01*
X142765931Y-122835995D01*
X142748000Y-122869541D01*
X142730069Y-122835994D01*
X142542797Y-122607803D01*
X142314605Y-122420531D01*
X142054263Y-122281375D01*
X141771776Y-122195684D01*
X141478000Y-122166749D01*
X141184223Y-122195684D01*
X140901736Y-122281375D01*
X140641394Y-122420531D01*
X140413203Y-122607803D01*
X140225931Y-122835995D01*
X140208000Y-122869541D01*
X140190069Y-122835994D01*
X140002797Y-122607803D01*
X139774605Y-122420531D01*
X139514263Y-122281375D01*
X139231776Y-122195684D01*
X138938000Y-122166749D01*
X138644223Y-122195684D01*
X138361736Y-122281375D01*
X138101394Y-122420531D01*
X137873203Y-122607803D01*
X137685931Y-122835995D01*
X137546775Y-123096337D01*
X137461084Y-123378824D01*
X137439400Y-123598982D01*
X137439400Y-124051019D01*
X137461084Y-124271177D01*
X137546775Y-124553664D01*
X137685931Y-124814006D01*
X137873203Y-125042197D01*
X138101395Y-125229469D01*
X138361737Y-125368625D01*
X138644224Y-125454316D01*
X138938000Y-125483251D01*
X139231777Y-125454316D01*
X139514264Y-125368625D01*
X139774606Y-125229469D01*
X140002797Y-125042197D01*
X140190069Y-124814006D01*
X140208000Y-124780459D01*
X140225931Y-124814006D01*
X140413203Y-125042197D01*
X140641395Y-125229469D01*
X140901737Y-125368625D01*
X141184224Y-125454316D01*
X141478000Y-125483251D01*
X141771777Y-125454316D01*
X142054264Y-125368625D01*
X142314606Y-125229469D01*
X142542797Y-125042197D01*
X142730069Y-124814006D01*
X142748000Y-124780459D01*
X142765931Y-124814006D01*
X142953203Y-125042197D01*
X143181395Y-125229469D01*
X143441737Y-125368625D01*
X143724224Y-125454316D01*
X144018000Y-125483251D01*
X144311777Y-125454316D01*
X144594264Y-125368625D01*
X144854606Y-125229469D01*
X145082797Y-125042197D01*
X145270069Y-124814006D01*
X145288000Y-124780459D01*
X145305931Y-124814006D01*
X145493203Y-125042197D01*
X145721395Y-125229469D01*
X145981737Y-125368625D01*
X146264224Y-125454316D01*
X146558000Y-125483251D01*
X146851777Y-125454316D01*
X147134264Y-125368625D01*
X147394606Y-125229469D01*
X147622797Y-125042197D01*
X147810069Y-124814006D01*
X147828000Y-124780459D01*
X147845931Y-124814006D01*
X148033203Y-125042197D01*
X148213001Y-125189753D01*
X148213001Y-125297521D01*
X148208719Y-125341000D01*
X148225805Y-125514490D01*
X148268430Y-125655000D01*
X126909707Y-125655000D01*
X127039594Y-125525113D01*
X127331464Y-125088298D01*
X127532508Y-124602935D01*
X127635000Y-124087677D01*
X127635000Y-123562323D01*
X127532508Y-123047065D01*
X127331464Y-122561702D01*
X127039594Y-122124887D01*
X126668113Y-121753406D01*
X126231298Y-121461536D01*
X125745935Y-121260492D01*
X125230677Y-121158000D01*
X124705323Y-121158000D01*
X124190065Y-121260492D01*
X123704702Y-121461536D01*
X123267887Y-121753406D01*
X122896406Y-122124887D01*
X122604536Y-122561702D01*
X122403492Y-123047065D01*
X122301000Y-123562323D01*
X122301000Y-124087677D01*
X122403492Y-124602935D01*
X122604536Y-125088298D01*
X122896406Y-125525113D01*
X123026293Y-125655000D01*
X111708000Y-125655000D01*
X111708000Y-107648329D01*
X123675284Y-107648329D01*
X123707953Y-107756044D01*
X123818208Y-107993392D01*
X123972649Y-108204670D01*
X124165340Y-108381759D01*
X124388877Y-108517853D01*
X124634670Y-108607722D01*
X124841000Y-108485201D01*
X124841000Y-107442000D01*
X125095000Y-107442000D01*
X125095000Y-108485201D01*
X125301330Y-108607722D01*
X125547123Y-108517853D01*
X125770660Y-108381759D01*
X125963351Y-108204670D01*
X126117792Y-107993392D01*
X126228047Y-107756044D01*
X126260716Y-107648329D01*
X126137374Y-107442000D01*
X125095000Y-107442000D01*
X124841000Y-107442000D01*
X123798626Y-107442000D01*
X123675284Y-107648329D01*
X111708000Y-107648329D01*
X111708000Y-106981671D01*
X123675284Y-106981671D01*
X123798626Y-107188000D01*
X124841000Y-107188000D01*
X124841000Y-106144799D01*
X125095000Y-106144799D01*
X125095000Y-107188000D01*
X126137374Y-107188000D01*
X126260716Y-106981671D01*
X126228047Y-106873956D01*
X126117792Y-106636608D01*
X125963351Y-106425330D01*
X125770660Y-106248241D01*
X125547123Y-106112147D01*
X125301330Y-106022278D01*
X125095000Y-106144799D01*
X124841000Y-106144799D01*
X124634670Y-106022278D01*
X124388877Y-106112147D01*
X124165340Y-106248241D01*
X123972649Y-106425330D01*
X123818208Y-106636608D01*
X123707953Y-106873956D01*
X123675284Y-106981671D01*
X111708000Y-106981671D01*
X111708000Y-103363665D01*
X123533000Y-103363665D01*
X123533000Y-103646335D01*
X123588147Y-103923574D01*
X123696320Y-104184727D01*
X123853363Y-104419759D01*
X124053241Y-104619637D01*
X124288273Y-104776680D01*
X124549426Y-104884853D01*
X124826665Y-104940000D01*
X125109335Y-104940000D01*
X125144439Y-104933017D01*
X126216470Y-106005049D01*
X126244183Y-106038817D01*
X126277951Y-106066530D01*
X126277953Y-106066532D01*
X126288988Y-106075588D01*
X126378941Y-106149411D01*
X126532687Y-106231589D01*
X126699510Y-106282195D01*
X126829523Y-106295000D01*
X126829531Y-106295000D01*
X126873000Y-106299281D01*
X126916469Y-106295000D01*
X129180025Y-106295000D01*
X129011038Y-106463987D01*
X128864939Y-106682641D01*
X128764304Y-106925595D01*
X128713000Y-107183514D01*
X128713000Y-107446486D01*
X128718298Y-107473123D01*
X125224439Y-110966983D01*
X125189335Y-110960000D01*
X124906665Y-110960000D01*
X124629426Y-111015147D01*
X124368273Y-111123320D01*
X124133241Y-111280363D01*
X123933363Y-111480241D01*
X123776320Y-111715273D01*
X123668147Y-111976426D01*
X123613000Y-112253665D01*
X123613000Y-112536335D01*
X123668147Y-112813574D01*
X123776320Y-113074727D01*
X123933363Y-113309759D01*
X124083001Y-113459397D01*
X124083000Y-116472025D01*
X123931038Y-116623987D01*
X123784939Y-116842641D01*
X123684304Y-117085595D01*
X123633000Y-117343514D01*
X123633000Y-117606486D01*
X123684304Y-117864405D01*
X123784939Y-118107359D01*
X123931038Y-118326013D01*
X124116987Y-118511962D01*
X124335641Y-118658061D01*
X124578595Y-118758696D01*
X124836514Y-118810000D01*
X125099486Y-118810000D01*
X125357405Y-118758696D01*
X125600359Y-118658061D01*
X125819013Y-118511962D01*
X126004962Y-118326013D01*
X126151061Y-118107359D01*
X126251696Y-117864405D01*
X126303000Y-117606486D01*
X126303000Y-117343514D01*
X126251696Y-117085595D01*
X126151061Y-116842641D01*
X126004962Y-116623987D01*
X125853000Y-116472025D01*
X125853000Y-113582975D01*
X125962759Y-113509637D01*
X126162637Y-113309759D01*
X126319680Y-113074727D01*
X126427853Y-112813574D01*
X126483000Y-112536335D01*
X126483000Y-112253665D01*
X126476017Y-112218561D01*
X130044579Y-108650000D01*
X130179486Y-108650000D01*
X130437405Y-108598696D01*
X130680359Y-108498061D01*
X130899013Y-108351962D01*
X131050975Y-108200000D01*
X131078422Y-108200000D01*
X132693470Y-109815049D01*
X132721183Y-109848817D01*
X132754951Y-109876530D01*
X132754953Y-109876532D01*
X132855940Y-109959410D01*
X132855941Y-109959411D01*
X133009687Y-110041589D01*
X133176510Y-110092195D01*
X133306523Y-110105000D01*
X133306531Y-110105000D01*
X133350000Y-110109281D01*
X133393469Y-110105000D01*
X135846531Y-110105000D01*
X135890000Y-110109281D01*
X135933469Y-110105000D01*
X135933477Y-110105000D01*
X136063490Y-110092195D01*
X136230313Y-110041589D01*
X136384059Y-109959411D01*
X136518817Y-109848817D01*
X136546534Y-109815044D01*
X137755050Y-108606529D01*
X137788817Y-108578817D01*
X137838850Y-108517853D01*
X137899410Y-108444060D01*
X137899411Y-108444059D01*
X137981589Y-108290313D01*
X138032195Y-108123490D01*
X138045000Y-107993477D01*
X138045000Y-107993467D01*
X138049281Y-107950001D01*
X138045000Y-107906535D01*
X138045000Y-102810469D01*
X138049281Y-102767000D01*
X138045000Y-102723531D01*
X138045000Y-102723523D01*
X138032195Y-102593510D01*
X138031204Y-102590241D01*
X137993215Y-102465013D01*
X137981589Y-102426687D01*
X137899411Y-102272941D01*
X137840696Y-102201397D01*
X137816532Y-102171953D01*
X137816530Y-102171951D01*
X137788817Y-102138183D01*
X137755049Y-102110470D01*
X136726103Y-101081525D01*
X136763000Y-100896033D01*
X136763000Y-100573967D01*
X136700168Y-100258088D01*
X136576918Y-99960537D01*
X136397987Y-99692748D01*
X136170252Y-99465013D01*
X136032653Y-99373072D01*
X136128000Y-99373072D01*
X136252482Y-99360812D01*
X136372180Y-99324502D01*
X136482494Y-99265537D01*
X136579185Y-99186185D01*
X136658537Y-99089494D01*
X136717502Y-98979180D01*
X136753812Y-98859482D01*
X136766072Y-98735000D01*
X136766072Y-96735000D01*
X136753812Y-96610518D01*
X136717502Y-96490820D01*
X136658537Y-96380506D01*
X136579185Y-96283815D01*
X136482494Y-96204463D01*
X136372180Y-96145498D01*
X136252482Y-96109188D01*
X136128000Y-96096928D01*
X134128000Y-96096928D01*
X134003518Y-96109188D01*
X133883820Y-96145498D01*
X133773506Y-96204463D01*
X133676815Y-96283815D01*
X133597463Y-96380506D01*
X133538498Y-96490820D01*
X133502188Y-96610518D01*
X133489928Y-96735000D01*
X133489928Y-98735000D01*
X133502188Y-98859482D01*
X133538498Y-98979180D01*
X133597463Y-99089494D01*
X133676815Y-99186185D01*
X133773506Y-99265537D01*
X133883820Y-99324502D01*
X134003518Y-99360812D01*
X134128000Y-99373072D01*
X134223347Y-99373072D01*
X134085748Y-99465013D01*
X133858013Y-99692748D01*
X133679082Y-99960537D01*
X133555832Y-100258088D01*
X133493000Y-100573967D01*
X133493000Y-100896033D01*
X133555832Y-101211912D01*
X133679082Y-101509463D01*
X133858013Y-101777252D01*
X134085748Y-102004987D01*
X134353537Y-102183918D01*
X134476860Y-102235000D01*
X134353537Y-102286082D01*
X134085748Y-102465013D01*
X133858013Y-102692748D01*
X133679082Y-102960537D01*
X133555832Y-103258088D01*
X133493000Y-103573967D01*
X133493000Y-103896033D01*
X133529896Y-104081525D01*
X133086422Y-104525000D01*
X130773087Y-104525000D01*
X130781097Y-104497702D01*
X129968000Y-103684605D01*
X129154903Y-104497702D01*
X129162913Y-104525000D01*
X127239579Y-104525000D01*
X126396017Y-103681439D01*
X126403000Y-103646335D01*
X126403000Y-103575512D01*
X128527783Y-103575512D01*
X128569213Y-103855130D01*
X128664397Y-104121292D01*
X128731329Y-104246514D01*
X128975298Y-104318097D01*
X129788395Y-103505000D01*
X130147605Y-103505000D01*
X130960702Y-104318097D01*
X131204671Y-104246514D01*
X131325571Y-103991004D01*
X131394300Y-103716816D01*
X131408217Y-103434488D01*
X131366787Y-103154870D01*
X131271603Y-102888708D01*
X131204671Y-102763486D01*
X130960702Y-102691903D01*
X130147605Y-103505000D01*
X129788395Y-103505000D01*
X128975298Y-102691903D01*
X128731329Y-102763486D01*
X128610429Y-103018996D01*
X128541700Y-103293184D01*
X128527783Y-103575512D01*
X126403000Y-103575512D01*
X126403000Y-103363665D01*
X126347853Y-103086426D01*
X126239680Y-102825273D01*
X126082637Y-102590241D01*
X126004694Y-102512298D01*
X129154903Y-102512298D01*
X129968000Y-103325395D01*
X130781097Y-102512298D01*
X130709514Y-102268329D01*
X130454004Y-102147429D01*
X130179816Y-102078700D01*
X129897488Y-102064783D01*
X129617870Y-102106213D01*
X129351708Y-102201397D01*
X129226486Y-102268329D01*
X129154903Y-102512298D01*
X126004694Y-102512298D01*
X125882759Y-102390363D01*
X125853000Y-102370479D01*
X125853000Y-100695713D01*
X125916555Y-100643555D01*
X125938947Y-100616269D01*
X129306336Y-100616269D01*
X129365797Y-100850037D01*
X129604242Y-100960934D01*
X129859740Y-101023183D01*
X130122473Y-101034390D01*
X130382344Y-100994125D01*
X130629366Y-100903935D01*
X130730203Y-100850037D01*
X130789664Y-100616269D01*
X130048000Y-99874605D01*
X129306336Y-100616269D01*
X125938947Y-100616269D01*
X126083382Y-100440275D01*
X126207347Y-100208354D01*
X126283683Y-99956706D01*
X126302123Y-99769473D01*
X128708610Y-99769473D01*
X128748875Y-100029344D01*
X128839065Y-100276366D01*
X128892963Y-100377203D01*
X129126731Y-100436664D01*
X129868395Y-99695000D01*
X130227605Y-99695000D01*
X130969269Y-100436664D01*
X131203037Y-100377203D01*
X131313934Y-100138758D01*
X131376183Y-99883260D01*
X131387390Y-99620527D01*
X131347125Y-99360656D01*
X131256935Y-99113634D01*
X131203037Y-99012797D01*
X130969269Y-98953336D01*
X130227605Y-99695000D01*
X129868395Y-99695000D01*
X129126731Y-98953336D01*
X128892963Y-99012797D01*
X128782066Y-99251242D01*
X128719817Y-99506740D01*
X128708610Y-99769473D01*
X126302123Y-99769473D01*
X126309459Y-99695000D01*
X126283683Y-99433294D01*
X126207347Y-99181646D01*
X126083382Y-98949725D01*
X125938948Y-98773731D01*
X129306336Y-98773731D01*
X130048000Y-99515395D01*
X130789664Y-98773731D01*
X130730203Y-98539963D01*
X130491758Y-98429066D01*
X130236260Y-98366817D01*
X129973527Y-98355610D01*
X129713656Y-98395875D01*
X129466634Y-98486065D01*
X129365797Y-98539963D01*
X129306336Y-98773731D01*
X125938948Y-98773731D01*
X125916555Y-98746445D01*
X125853000Y-98694287D01*
X125853000Y-96887975D01*
X126004962Y-96736013D01*
X126151061Y-96517359D01*
X126251696Y-96274405D01*
X126303000Y-96016486D01*
X126303000Y-95753514D01*
X126251696Y-95495595D01*
X126151061Y-95252641D01*
X126004962Y-95033987D01*
X125819013Y-94848038D01*
X125600359Y-94701939D01*
X125357405Y-94601304D01*
X125099486Y-94550000D01*
X124836514Y-94550000D01*
X124578595Y-94601304D01*
X124335641Y-94701939D01*
X124116987Y-94848038D01*
X123931038Y-95033987D01*
X123784939Y-95252641D01*
X123684304Y-95495595D01*
X123633000Y-95753514D01*
X123633000Y-96016486D01*
X123684304Y-96274405D01*
X123784939Y-96517359D01*
X123931038Y-96736013D01*
X124083001Y-96887976D01*
X124083000Y-98694287D01*
X124019445Y-98746445D01*
X123852618Y-98949725D01*
X123728653Y-99181646D01*
X123652317Y-99433294D01*
X123626541Y-99695000D01*
X123652317Y-99956706D01*
X123728653Y-100208354D01*
X123852618Y-100440275D01*
X124019445Y-100643555D01*
X124083001Y-100695714D01*
X124083000Y-102370479D01*
X124053241Y-102390363D01*
X123853363Y-102590241D01*
X123696320Y-102825273D01*
X123588147Y-103086426D01*
X123533000Y-103363665D01*
X111708000Y-103363665D01*
X111708000Y-88133514D01*
X127443000Y-88133514D01*
X127443000Y-88396486D01*
X127494304Y-88654405D01*
X127594939Y-88897359D01*
X127741038Y-89116013D01*
X127893000Y-89267975D01*
X127893001Y-91904521D01*
X127888719Y-91948000D01*
X127905805Y-92121490D01*
X127956412Y-92288313D01*
X128038590Y-92442059D01*
X128121468Y-92543046D01*
X128121471Y-92543049D01*
X128149184Y-92576817D01*
X128182951Y-92604529D01*
X129163000Y-93584579D01*
X129163001Y-94884286D01*
X129099445Y-94936445D01*
X128932618Y-95139725D01*
X128808653Y-95371646D01*
X128732317Y-95623294D01*
X128706541Y-95885000D01*
X128732317Y-96146706D01*
X128808653Y-96398354D01*
X128932618Y-96630275D01*
X129099445Y-96833555D01*
X129302725Y-97000382D01*
X129534646Y-97124347D01*
X129786294Y-97200683D01*
X129982421Y-97220000D01*
X130113579Y-97220000D01*
X130309706Y-97200683D01*
X130561354Y-97124347D01*
X130793275Y-97000382D01*
X130996555Y-96833555D01*
X131163382Y-96630275D01*
X131287347Y-96398354D01*
X131363683Y-96146706D01*
X131389459Y-95885000D01*
X131363683Y-95623294D01*
X131287347Y-95371646D01*
X131163382Y-95139725D01*
X130996555Y-94936445D01*
X130933000Y-94884287D01*
X130933000Y-93261465D01*
X130937281Y-93217999D01*
X130933000Y-93174533D01*
X130933000Y-93174523D01*
X130920195Y-93044510D01*
X130869589Y-92877687D01*
X130787411Y-92723941D01*
X130676817Y-92589183D01*
X130643050Y-92561471D01*
X129663000Y-91581422D01*
X129663000Y-89267975D01*
X129814962Y-89116013D01*
X129961061Y-88897359D01*
X130061696Y-88654405D01*
X130113000Y-88396486D01*
X130113000Y-88133514D01*
X130061696Y-87875595D01*
X129961061Y-87632641D01*
X129814962Y-87413987D01*
X129629013Y-87228038D01*
X129410359Y-87081939D01*
X129167405Y-86981304D01*
X128909486Y-86930000D01*
X128646514Y-86930000D01*
X128388595Y-86981304D01*
X128145641Y-87081939D01*
X127926987Y-87228038D01*
X127741038Y-87413987D01*
X127594939Y-87632641D01*
X127494304Y-87875595D01*
X127443000Y-88133514D01*
X111708000Y-88133514D01*
X111708000Y-81753967D01*
X123683000Y-81753967D01*
X123683000Y-82076033D01*
X123745832Y-82391912D01*
X123869082Y-82689463D01*
X124048013Y-82957252D01*
X124275748Y-83184987D01*
X124543537Y-83363918D01*
X124841088Y-83487168D01*
X125156967Y-83550000D01*
X125479033Y-83550000D01*
X125794912Y-83487168D01*
X126092463Y-83363918D01*
X126360252Y-83184987D01*
X126587987Y-82957252D01*
X126766918Y-82689463D01*
X126818000Y-82566140D01*
X126869082Y-82689463D01*
X127048013Y-82957252D01*
X127275748Y-83184987D01*
X127543537Y-83363918D01*
X127841088Y-83487168D01*
X128156967Y-83550000D01*
X128479033Y-83550000D01*
X128794912Y-83487168D01*
X129092463Y-83363918D01*
X129360252Y-83184987D01*
X129494826Y-83050413D01*
X130362192Y-83050413D01*
X130457956Y-83314814D01*
X130747571Y-83455704D01*
X131059108Y-83537384D01*
X131380595Y-83556718D01*
X131699675Y-83512961D01*
X132004088Y-83407795D01*
X132178044Y-83314814D01*
X132273808Y-83050413D01*
X131318000Y-82094605D01*
X130362192Y-83050413D01*
X129494826Y-83050413D01*
X129587987Y-82957252D01*
X129766918Y-82689463D01*
X129815346Y-82572549D01*
X129825205Y-82601088D01*
X129918186Y-82775044D01*
X130182587Y-82870808D01*
X131138395Y-81915000D01*
X131124253Y-81900858D01*
X131303858Y-81721253D01*
X131318000Y-81735395D01*
X132273808Y-80779587D01*
X132178044Y-80515186D01*
X131888429Y-80374296D01*
X131576892Y-80292616D01*
X131255405Y-80273282D01*
X131163312Y-80285911D01*
X131214223Y-80235000D01*
X143874161Y-80235000D01*
X143916400Y-80239160D01*
X143958639Y-80235000D01*
X143958646Y-80235000D01*
X144084989Y-80222556D01*
X144247100Y-80173381D01*
X144396502Y-80093524D01*
X144527454Y-79986054D01*
X144554388Y-79953235D01*
X147310341Y-77197282D01*
X147574000Y-77223251D01*
X147867777Y-77194316D01*
X148150264Y-77108625D01*
X148410606Y-76969469D01*
X148638797Y-76782197D01*
X148826069Y-76554006D01*
X148844000Y-76520459D01*
X148861931Y-76554006D01*
X149049203Y-76782197D01*
X149277395Y-76969469D01*
X149537737Y-77108625D01*
X149820224Y-77194316D01*
X150114000Y-77223251D01*
X150407777Y-77194316D01*
X150690264Y-77108625D01*
X150950606Y-76969469D01*
X151178797Y-76782197D01*
X151366069Y-76554006D01*
X151384000Y-76520459D01*
X151401931Y-76554006D01*
X151589203Y-76782197D01*
X151817395Y-76969469D01*
X152077737Y-77108625D01*
X152360224Y-77194316D01*
X152654000Y-77223251D01*
X152947777Y-77194316D01*
X153230264Y-77108625D01*
X153490606Y-76969469D01*
X153718797Y-76782197D01*
X153906069Y-76554006D01*
X154045225Y-76293663D01*
X154130916Y-76011176D01*
X154152600Y-75791018D01*
X154152600Y-75338981D01*
X154130916Y-75118823D01*
X154045225Y-74836336D01*
X153906069Y-74575994D01*
X153718797Y-74347803D01*
X153490605Y-74160531D01*
X153230263Y-74021375D01*
X152947776Y-73935684D01*
X152654000Y-73906749D01*
X152360223Y-73935684D01*
X152077736Y-74021375D01*
X151817394Y-74160531D01*
X151589203Y-74347803D01*
X151401931Y-74575995D01*
X151384000Y-74609541D01*
X151366069Y-74575994D01*
X151178797Y-74347803D01*
X150950605Y-74160531D01*
X150690263Y-74021375D01*
X150407776Y-73935684D01*
X150114000Y-73906749D01*
X149820223Y-73935684D01*
X149537736Y-74021375D01*
X149277394Y-74160531D01*
X149049203Y-74347803D01*
X148861931Y-74575995D01*
X148844000Y-74609541D01*
X148826069Y-74575994D01*
X148638797Y-74347803D01*
X148410605Y-74160531D01*
X148150263Y-74021375D01*
X147867776Y-73935684D01*
X147574000Y-73906749D01*
X147280223Y-73935684D01*
X146997736Y-74021375D01*
X146737394Y-74160531D01*
X146509203Y-74347803D01*
X146321931Y-74575995D01*
X146304000Y-74609541D01*
X146286069Y-74575994D01*
X146098797Y-74347803D01*
X145870605Y-74160531D01*
X145610263Y-74021375D01*
X145327776Y-73935684D01*
X145034000Y-73906749D01*
X144740223Y-73935684D01*
X144457736Y-74021375D01*
X144197394Y-74160531D01*
X143969203Y-74347803D01*
X143781931Y-74575995D01*
X143764000Y-74609541D01*
X143746069Y-74575994D01*
X143558797Y-74347803D01*
X143330605Y-74160531D01*
X143070263Y-74021375D01*
X142787776Y-73935684D01*
X142494000Y-73906749D01*
X142200223Y-73935684D01*
X141917736Y-74021375D01*
X141657394Y-74160531D01*
X141429203Y-74347803D01*
X141241931Y-74575995D01*
X141224000Y-74609541D01*
X141206069Y-74575994D01*
X141018797Y-74347803D01*
X140790605Y-74160531D01*
X140530263Y-74021375D01*
X140247776Y-73935684D01*
X139954000Y-73906749D01*
X139660223Y-73935684D01*
X139377736Y-74021375D01*
X139117394Y-74160531D01*
X138889203Y-74347803D01*
X138701931Y-74575995D01*
X138680576Y-74615947D01*
X138532486Y-74413271D01*
X138316035Y-74214267D01*
X138064919Y-74061314D01*
X137788789Y-73960291D01*
X137773026Y-73957642D01*
X137541000Y-74078783D01*
X137541000Y-75438000D01*
X137561000Y-75438000D01*
X137561000Y-75692000D01*
X137541000Y-75692000D01*
X137541000Y-77051217D01*
X137773026Y-77172358D01*
X137788789Y-77169709D01*
X138064919Y-77068686D01*
X138316035Y-76915733D01*
X138532486Y-76716729D01*
X138680576Y-76514053D01*
X138701931Y-76554006D01*
X138889203Y-76782197D01*
X139117395Y-76969469D01*
X139377737Y-77108625D01*
X139660224Y-77194316D01*
X139954000Y-77223251D01*
X140247777Y-77194316D01*
X140530264Y-77108625D01*
X140790606Y-76969469D01*
X141018797Y-76782197D01*
X141206069Y-76554006D01*
X141224000Y-76520459D01*
X141241931Y-76554006D01*
X141429203Y-76782197D01*
X141657395Y-76969469D01*
X141917737Y-77108625D01*
X142200224Y-77194316D01*
X142328251Y-77206926D01*
X142290177Y-77245000D01*
X129170246Y-77245000D01*
X129128000Y-77240839D01*
X128959410Y-77257444D01*
X128797299Y-77306619D01*
X128745259Y-77334436D01*
X128647898Y-77386476D01*
X128516946Y-77493946D01*
X128490017Y-77526759D01*
X125694014Y-80322762D01*
X125479033Y-80280000D01*
X125156967Y-80280000D01*
X124841088Y-80342832D01*
X124543537Y-80466082D01*
X124275748Y-80645013D01*
X124048013Y-80872748D01*
X123869082Y-81140537D01*
X123745832Y-81438088D01*
X123683000Y-81753967D01*
X111708000Y-81753967D01*
X111708000Y-73735000D01*
X124296293Y-73735000D01*
X124166406Y-73864887D01*
G36*
X133505616Y-106476108D02*
G01*
X133486282Y-106797595D01*
X133530039Y-107116675D01*
X133635205Y-107421088D01*
X133728186Y-107595044D01*
X133992587Y-107690808D01*
X134948395Y-106735000D01*
X134934253Y-106720858D01*
X135113858Y-106541253D01*
X135128000Y-106555395D01*
X135142143Y-106541253D01*
X135321748Y-106720858D01*
X135307605Y-106735000D01*
X135321748Y-106749143D01*
X135142143Y-106928748D01*
X135128000Y-106914605D01*
X134172192Y-107870413D01*
X134267956Y-108134814D01*
X134557571Y-108275704D01*
X134783733Y-108335000D01*
X133716579Y-108335000D01*
X132101534Y-106719956D01*
X132073817Y-106686183D01*
X131939059Y-106575589D01*
X131785313Y-106493411D01*
X131618490Y-106442805D01*
X131488477Y-106430000D01*
X131488469Y-106430000D01*
X131445000Y-106425719D01*
X131401531Y-106430000D01*
X131050975Y-106430000D01*
X130915975Y-106295000D01*
X133409531Y-106295000D01*
X133453000Y-106299281D01*
X133496469Y-106295000D01*
X133496477Y-106295000D01*
X133554601Y-106289275D01*
X133505616Y-106476108D01*
X133505616Y-106476108D01*
G37*
X133505616Y-106476108D02*
X133486282Y-106797595D01*
X133530039Y-107116675D01*
X133635205Y-107421088D01*
X133728186Y-107595044D01*
X133992587Y-107690808D01*
X134948395Y-106735000D01*
X134934253Y-106720858D01*
X135113858Y-106541253D01*
X135128000Y-106555395D01*
X135142143Y-106541253D01*
X135321748Y-106720858D01*
X135307605Y-106735000D01*
X135321748Y-106749143D01*
X135142143Y-106928748D01*
X135128000Y-106914605D01*
X134172192Y-107870413D01*
X134267956Y-108134814D01*
X134557571Y-108275704D01*
X134783733Y-108335000D01*
X133716579Y-108335000D01*
X132101534Y-106719956D01*
X132073817Y-106686183D01*
X131939059Y-106575589D01*
X131785313Y-106493411D01*
X131618490Y-106442805D01*
X131488477Y-106430000D01*
X131488469Y-106430000D01*
X131445000Y-106425719D01*
X131401531Y-106430000D01*
X131050975Y-106430000D01*
X130915975Y-106295000D01*
X133409531Y-106295000D01*
X133453000Y-106299281D01*
X133496469Y-106295000D01*
X133496477Y-106295000D01*
X133554601Y-106289275D01*
X133505616Y-106476108D01*
M02*
